<?xml version="1.0" standalone="no"?>
<!DOCTYPE svg PUBLIC "-//W3C//DTD SVG 1.1//EN" "http://www.w3.org/Graphics/SVG/1.1/DTD/svg11.dtd" >
<!--
2013-9-30: Created.
-->
<svg>
<metadata>
Created by iconfont
</metadata>
<defs>

<font id="iconfont" horiz-adv-x="1024" >
  <font-face
    font-family="iconfont"
    font-weight="500"
    font-stretch="normal"
    units-per-em="1024"
    ascent="896"
    descent="-128"
  />
    <missing-glyph />
    
    <glyph glyph-name="about" unicode="&#58903;" d="M512 451.87878833c-12.846545 0-23.272727-10.42618201-23.272727-23.272727l0-279.272727c0-12.846545 10.42618201-23.272727 23.272727-23.272727 12.846545 0 23.272727 10.42618201 23.272727 23.272727l0 279.272727C535.272727 441.45260633 524.846545 451.87878833 512 451.87878833zM512 847.51515133c-257.070545 0-465.454545-208.384-465.454545-465.454545 0-257.070545 208.384-465.454545 465.454545-465.454545 257.070545 0 465.454545 208.384 465.454545 465.454545C977.454545 639.13115133 769.070545 847.51515133 512 847.51515133zM512-36.84848466999995c-231.377455 0-418.909091 187.531636-418.909091 418.909091 0 231.377455 187.531636 418.909091 418.909091 418.909091s418.909091-187.531636 418.909091-418.909091C930.909091 150.68315133 743.377455-36.84848466999995 512-36.84848466999995zM512 638.0606063299999c-25.693091 0-46.545455-20.852364-46.545455-46.545455s20.852364-46.545455 46.545455-46.545455 46.545455 20.852364 46.545455 46.545455S537.693091 638.0606063299999 512 638.0606063299999z"  horiz-adv-x="1024" />

    
    <glyph glyph-name="gerenzhongxin" unicode="&#58947;" d="M407.714928-117.371792C174.95336-69.207152 0 136.965152 0 384 0 666.769792 229.230208 896 512 896 794.769792 896 1024 666.769792 1024 384 1024 242.989568 966.9956 115.293216 874.774112 22.698256 874.623664 22.541104 874.472992 22.38952 874.324352 22.247232 805.212496-46.973152 716.39088-96.508928 616.995392-117.224272 583.103696-124.287104 547.983232-128 511.995584-128 476.26208-128 441.383568-124.33936 407.714608-117.372624L407.714928-117.371792 407.714928-117.371792ZM867.4676 61.43816C944.846208 146.65944 992 259.82304 992 384 992 649.096672 777.096672 864 512 864 246.903328 864 32 649.096672 32 384 32 259.680448 79.262144 146.399568 156.799088 61.144688 211.38784 212.892896 400.979904 253.168656 511.985152 253.168656 623.192192 253.168656 813.27208 213.73224 867.4676 61.43816L867.4676 61.43816 867.4676 61.43816ZM512.083552 769.686064C644.087312 769.686064 752.193824 662.717488 752.193824 529.575776 752.193824 397.572016 645.225264 289.465488 512.083552 289.465488 378.941824 289.465488 271.973264 396.434048 271.973264 529.575776 271.973264 661.579536 380.079792 769.686064 512.083552 769.686064L512.083552 769.686064 512.083552 769.686064Z"  horiz-adv-x="1024" />

    
    <glyph glyph-name="wanchengquerengouwubiankuang" unicode="&#59423;" d="M445.44 151.04l439.04 434.56c12.8 12.8 12.8 33.28 0 45.44-12.8 12.8-33.28 12.8-46.08 0l-425.6-421.12L184.96 438.4c-12.8 12.8-33.92 12.8-46.72 0-12.8-12.8-12.8-33.92 0-46.72l240-240C400 129.92 422.4 128.64 445.44 151.04z"  horiz-adv-x="1024" />

    
    <glyph glyph-name="xiala" unicode="&#59426;" d="M824.32 567.04c-12.8 12.8-33.28 12.8-45.44 0L481.92 272 183.68 567.04c-12.8 12.8-33.28 12.8-45.44 0-12.8-12.16-12.8-32.64 0-45.44l317.44-314.24c1.28-1.28 1.28-3.2 2.56-4.48 12.8-12.8 33.28-12.8 45.44 0l320 318.08C837.12 533.76 837.12 554.24 824.32 567.04z"  horiz-adv-x="1024" />

    
    <glyph glyph-name="guanbi2" unicode="&#58908;" d="M511.829108 782.293285c219.430618 0 397.952524-178.520883 397.952524-397.952524S731.259726-13.61074 511.829108-13.61074 113.876584 164.90912 113.876584 384.341784 292.39849 782.293285 511.829108 782.293285M511.829108 832.038246c-247.25636 0-447.696462-200.441125-447.696462-447.696462 0-247.25636 200.440102-447.696462 447.696462-447.696462s447.696462 200.440102 447.696462 447.696462C959.52557 631.597121 759.085468 832.038246 511.829108 832.038246L511.829108 832.038246z"  horiz-adv-x="1024" />

    
    <glyph glyph-name="lishijilu" unicode="&#59565;" d="M510.567403 763.075447c-210.284801 0-377.387029-168.739482-377.387029-377.387029 0-210.182472 167.204557-380.661537 377.387029-380.661537s380.661537 170.479065 380.661537 380.661537C891.22894 594.335965 720.749875 763.075447 510.567403 763.075447zM740.908564 155.449585c-29.879884-29.879884-64.773858-53.415409-103.556311-69.787948-40.112721-16.986509-82.783651-25.582093-126.784851-25.582093s-86.67213 8.595583-126.784851 25.582093c-38.782452 16.372539-73.574098 39.908064-103.556311 69.787948-29.879884 29.879884-50.550215 64.773858-66.922754 103.556311C196.316978 299.118617 188.130709 341.687219 188.130709 385.688418s8.18627 86.67213 25.172779 126.784851c16.372539 38.782452 37.04287 73.574098 66.922754 103.556311 29.879884 29.879884 64.773858 49.936245 103.556311 66.308784 40.112721 16.986509 82.783651 25.172779 126.784851 25.172779s86.67213-8.18627 126.784851-25.172779c38.782452-16.372539 73.574098-36.4289 103.556311-66.308784 29.879884-29.879884 53.415409-64.773858 69.787948-103.556311 16.986509-40.112721 25.582093-82.783651 25.582093-126.784851s-8.595583-86.67213-25.582093-126.784851C794.323973 220.223444 770.788448 185.329469 740.908564 155.449585zM522.64215 378.832417l0 193.195963c-0.102328 15.246927-13.302688 27.62866-28.549615 27.62866 0 0-0.102328 0-0.102328 0-15.349256-0.102328-27.62866-12.484061-27.62866-27.833317L466.463875 367.678625c0-7.981613 3.683821-15.144599 9.311882-20.261017l91.68622-93.221145c5.423404-5.423404 12.484061-8.083941 19.544719-8.083941 7.060658 0 14.223643 2.660538 19.544719 8.083941 10.846807 10.846807 10.846807 28.344959 0 39.191766L522.64215 378.832417z"  horiz-adv-x="1024" />

    
    <glyph glyph-name="shipin" unicode="&#58960;" d="M743.7 343.4 426.6 132c-33.4-22.2-60.8-7.6-60.8 32.6L365.8 603.4c0 40.2 27.4 54.9 60.8 32.5l317.1-211.5C777.1 402.3 777.1 365.7 743.7 343.4L743.7 343.4 743.7 343.4z"  horiz-adv-x="1024" />

    
    <glyph glyph-name="check1" unicode="&#58956;" d="M512-128C794.769789-128 1024 101.230194 1024 384 1024 666.769806 794.769789 896 512 896 229.230211 896 0 666.769806 0 384 0 101.230194 229.230211-128 512-128ZM431.083941 297.902933 714.191064 581.010091C736.716032 603.535019 773.148496 603.622798 795.917352 580.853931 818.528563 558.242702 818.528779 521.582876 796.073506 499.127637L475.378443 178.432569C464.765298 167.819435 451.064639 162.187435 437.160454 161.58043 420.428584 159.638812 403.030932 165.049913 390.430441 177.650404L227.825095 340.255744C205.68312 362.397696 205.588645 398.202425 227.960024 420.57381 250.176518 442.790343 286.435146 442.551751 308.27813 420.70875L431.083941 297.902933Z"  horiz-adv-x="1024" />

    
    <glyph glyph-name="wuuiconsuoxiao" unicode="&#58911;" d="M512 896C230.4 896 0 665.6 0 384c0-281.6 230.4-512 512-512 281.6 0 512 230.4 512 512C1024 665.6 793.6 896 512 896zM716.8 332.8 307.2 332.8c-30.72 0-51.2 20.48-51.2 51.2 0 30.72 20.48 51.2 51.2 51.2l409.6 0c30.72 0 51.2-20.48 51.2-51.2C768 353.28 747.52 332.8 716.8 332.8z"  horiz-adv-x="1024" />

    
    <glyph glyph-name="zanting" unicode="&#59242;" d="M757.52 822.893h-62.493c-34.526 0-62.498-27.984-62.498-62.511v-749.948c0-34.526 27.974-62.493 62.498-62.493h62.493c34.516 0 62.502 27.968 62.502 62.493v749.953c-0.001 34.524-27.984 62.509-62.502 62.509zM320.054 822.893h-62.502c-34.526 0-62.498-27.984-62.498-62.511v-749.948c0-34.526 27.974-62.493 62.498-62.493h62.502c34.505 0 62.493 27.968 62.493 62.493v749.953c-0.001 34.524-27.984 62.509-62.493 62.509z"  horiz-adv-x="1024" />

    
    <glyph glyph-name="dizhi" unicode="&#58938;" d="M511.9989088 860.49066133c-185.2146016 0-335.8976672-147.51436373-335.89766719-328.83330667 0-82.77701227 33.0885376-197.33927894 90.78008532-314.31491199 57.32916053-116.2366688 133.17607039-223.24011413 208.1977856-293.73636055 9.55304107-10.24288533 22.94498133-16.09455999 36.91979627-16.09455999 13.7739744 0 27.05021226 5.71523307 36.58251413 15.7190752 159.51897386 149.34922028 299.31624427 433.449584 299.31624427 608.42784854C847.8976672 712.97629652 697.21351039 860.49066133 511.9989088 860.49066133zM517.83202667-44.93612053000004l-1.20395413-1.21486934c-0.87103786-0.95072-2.38171092-2.08263253-4.62916481-2.08263253-2.39480961 0-3.94150293 1.33493653-4.6520864 2.13066027l-1.3807808 1.41570986C356.48802027 95.38180799999998 220.3571872 370.08958506 220.3571872 531.65626241c0 156.9167744 130.82928852 284.57736107 291.64172053 284.57736107 160.81243307 0 291.6428128-127.66058667 291.6428128-284.57736107C803.64172053 369.61804587999995 667.41374187 94.79456641000002 517.83202667-44.93612053000004zM513.11444907 736.4091903999999c-97.16442453 0-176.21278187-79.0538144-176.21278187-176.22478827 0-97.14805119 79.04835733-176.18440213 176.21278187-176.18440213 97.15569173 0 176.19640853 79.03635093 176.19640853 176.18440213C689.3108576 657.35537493 610.2701408 736.4091903999999 513.11444907 736.4091903999999zM513.11444907 428.25594666c-72.76116373 0-131.9568352 59.183664-131.9568352 131.92845547 0 72.76771307 59.19567146 131.9688416 131.9568352 131.96884159 72.752432 0 131.94046187-59.20112852 131.94046186-131.96884159C645.05491093 487.43961067 585.86688 428.25594666 513.11444907 428.25594666z"  horiz-adv-x="1024" />

    
    <glyph glyph-name="lianxi1" unicode="&#58906;" d="M715.508485-64.567295c-57.159838 0-130.959657 38.164205-182.802396 70.187549-69.424162 42.878576-144.218636 102.2068-210.607672 167.033247l-0.242524 0.23843-21.076014 21.13025c-64.684208 66.536392-123.869169 141.504828-166.657694 211.090673-31.946596 51.957349-70.030983 125.919874-70.030983 183.212742 0 61.312414 43.74634 126.382409 62.547545 151.508669 14.675234 19.61678 65.943898 83.607186 109.507066 83.607186 17.883299 0 37.147038-11.734252 62.464657-38.052664 22.394033-23.26589 43.883463-52.193733 57.96211-72.359005 18.912745-27.072589 36.400025-55.420217 49.256844-79.823 20.803815-39.511899 23.209608-56.463989 23.209608-65.768913 0-18.779715-9.790994-35.074843-29.090549-48.422849-12.707416-8.783037-27.969005-15.396665-42.719964-21.795399-9.953699-4.317329-25.842575-11.202133-31.904641-16.045441 2.119267-8.973372 11.360745-30.656207 36.334533-67.408249 23.276123-34.252105 53.375651-71.362304 80.56285-99.345636 27.92398-27.249621 64.943105-57.424874 99.128695-80.747046 36.652781-25.025976 58.285474-34.294061 67.251683-36.416398 4.823865 6.073322 11.697413 21.998013 16.002462 31.967062 6.379291 14.788821 12.983709 30.087249 21.750373 42.824341 13.322423 19.348674 29.573549 29.151947 48.319495 29.151947 9.284457 0 26.193569-2.407839 65.614393-23.258727 24.350594-12.882402 52.636824-30.41266 79.648015-49.367361 20.119223-14.111392 48.980551-35.647895 72.200392-58.084906 26.248827-25.384134 37.95852-44.687782 37.95852-62.615083 0-43.659359-63.838957-95.048773-83.409688-109.74959C841.601298-20.732951 776.674567-64.567295 715.508485-64.567295L715.508485-64.567295 715.508485-64.567295 715.508485-64.567295zM670.06448 398.238282c-9.128915 0-17.214057 6.551206-18.857487 15.881712-4.692882 26.663266-20.095687 49.837058-43.383066 65.237817-23.612791 15.623839-52.480258 21.425985-81.285305 16.33299-10.428513-1.846044-20.369933 5.13802-22.204721 15.592117-1.838881 10.446933 5.121648 20.412912 15.550161 22.25384 38.495756 6.809079 77.229942-1.042749 109.058858-22.10546 32.166607-21.276582 53.486168-53.465702 60.027142-90.639347 1.837858-10.454096-5.123694-20.419052-15.551184-22.262026C672.294264 398.33038 671.170674 398.238282 670.06448 398.238282L670.06448 398.238282 670.06448 398.238282zM785.485233 447.859423c-9.128915 0-17.220197 6.553253-18.857487 15.877619-9.103332 51.752688-38.940894 96.67583-84.010369 126.488833-45.401026 30.03813-100.830453 41.203424-156.077731 31.43699-10.428513-1.841951-20.36277 5.14109-22.204721 15.588023-1.838881 10.44898 5.121648 20.422122 15.550161 22.26305 64.939011 11.471262 130.235157-1.735527 183.851285-37.2156 53.955866-35.687804 89.701998-89.633437 100.649328-151.888316 1.843998-10.454096-5.123694-20.422122-15.552208-22.26305C787.709901 447.953567 786.591427 447.859423 785.485233 447.859423L785.485233 447.859423 785.485233 447.859423zM939.582867 462.18264c-9.129938 0-17.22736 6.561439-18.86465 15.884782-15.533788 88.309278-66.401316 164.950819-143.238308 215.770252-77.161381 51.04763-171.311691 70.030983-265.100774 53.454446-10.423397-1.839905-20.364817 5.136997-22.199605 15.591093-1.835811 10.446933 5.123694 20.415982 15.553231 22.255887 103.477746 18.292622 207.488635-2.740414 292.872281-59.220776C884.322285 669.21181 941.10043 583.559035 958.483332 484.738355c1.842974-10.446933-5.123694-20.413935-15.552208-22.25384C941.806511 462.278831 940.688038 462.18264 939.582867 462.18264L939.582867 462.18264 939.582867 462.18264zM939.582867 462.18264"  horiz-adv-x="1024" />

    
    <glyph glyph-name="lianxi" unicode="&#58953;" d="M715.508485-64.567295c-57.159838 0-130.959657 38.164205-182.802396 70.187549-69.424162 42.878576-144.218636 102.2068-210.607672 167.033247l-0.242524 0.23843-21.076014 21.13025c-64.684208 66.536392-123.869169 141.504828-166.657694 211.090673-31.946596 51.957349-70.030983 125.919874-70.030983 183.212742 0 61.312414 43.74634 126.382409 62.547545 151.508669 14.675234 19.61678 65.943898 83.607186 109.507066 83.607186 17.883299 0 37.147038-11.734252 62.464657-38.052664 22.394033-23.26589 43.883463-52.193733 57.96211-72.359005 18.912745-27.072589 36.400025-55.420217 49.256844-79.823 20.803815-39.511899 23.209608-56.463989 23.209608-65.768913 0-18.779715-9.790994-35.074843-29.090549-48.422849-12.707416-8.783037-27.969005-15.396665-42.719964-21.795399-9.953699-4.317329-25.842575-11.202133-31.904641-16.045441 2.119267-8.973372 11.360745-30.656207 36.334533-67.408249 23.276123-34.252105 53.375651-71.362304 80.56285-99.345636 27.92398-27.249621 64.943105-57.424874 99.128695-80.747046 36.652781-25.025976 58.285474-34.294061 67.251683-36.416398 4.823865 6.073322 11.697413 21.998013 16.002462 31.967062 6.379291 14.788821 12.983709 30.087249 21.750373 42.824341 13.322423 19.348674 29.573549 29.151947 48.319495 29.151947 9.284457 0 26.193569-2.407839 65.614393-23.258727 24.350594-12.882402 52.636824-30.41266 79.648015-49.367361 20.119223-14.111392 48.980551-35.647895 72.200392-58.084906 26.248827-25.384134 37.95852-44.687782 37.95852-62.615083 0-43.659359-63.838957-95.048773-83.409688-109.74959C841.601298-20.732951 776.674567-64.567295 715.508485-64.567295L715.508485-64.567295 715.508485-64.567295 715.508485-64.567295zM358.726639 210.089112c63.691601-62.179155 135.210471-118.934786 201.429639-159.827125 64.195068-39.655162 120.81767-62.400189 155.352207-62.400189 30.762631 0 74.606185 18.828834 117.307729 50.362015 18.714224 13.831007 35.753295 29.227672 47.969525 43.35339 11.458983 13.262048 15.651468 21.919219 16.720823 25.41074-4.437056 9.540284-30.748305 39.361473-92.151793 81.81947-24.093744 16.657378-48.999994 31.959899-70.13229 43.098587-26.5374 13.980409-37.59627 16.396435-40.120766 16.796548-0.98749-0.681522-3.873214-3.101641-8.272407-10.484795-4.91801-8.263198-9.641591-19.21769-14.21577-29.80891-5.623068-13.044084-11.447726-26.523073-18.582217-37.409005-11.609409-17.691941-25.862018-26.672476-42.363853-26.678616-0.299829 0-0.611937 0-0.930185 0.01228-8.029884 0.172939-32.478715 0.691755-98.851379 45.99659-36.639478 25.019837-76.434833 57.45455-106.426915 86.780459l-0.468674 0.461511c-29.254278 30.078039-61.61429 69.951165-86.576821 106.672508-45.207621 66.525136-45.732577 91.02718-45.9004 99.084693-0.356111 16.838503 8.509814 31.365358 26.343995 43.211151 10.909467 7.234775 24.473391 13.113669 37.59627 18.804275 10.565636 4.581342 21.487384 9.317203 29.734208 14.241352 7.361665 4.400217 9.790994 7.29515 10.455119 8.289804-0.394996 2.533706-2.805906 13.616112-16.752546 40.215934-11.107989 21.175275-26.386974 46.139853-42.995233 70.282716-42.36897 61.554938-72.124667 87.923492-81.634252 92.366687-3.486404-1.074472-12.121062-5.27412-25.356504-16.763802-14.102183-12.231579-29.460985-29.314653-43.25106-48.074925-31.466666-42.788525-50.243311-86.738503-50.243311-117.569696 0-34.607192 22.682605-91.355661 62.246693-155.702178 40.807405-66.373687 97.430006-138.057309 159.463852-201.890126L358.726639 210.089112 358.726639 210.089112 358.726639 210.089112 358.726639 210.089112zM670.06448 398.238282c-9.128915 0-17.214057 6.551206-18.857487 15.881712-4.692882 26.663266-20.095687 49.837058-43.383066 65.237817-23.612791 15.623839-52.480258 21.425985-81.285305 16.33299-10.428513-1.846044-20.369933 5.13802-22.204721 15.592117-1.838881 10.446933 5.121648 20.412912 15.550161 22.25384 38.495756 6.809079 77.229942-1.042749 109.058858-22.10546 32.166607-21.276582 53.486168-53.465702 60.027142-90.639347 1.837858-10.454096-5.123694-20.419052-15.551184-22.262026C672.294264 398.33038 671.170674 398.238282 670.06448 398.238282L670.06448 398.238282 670.06448 398.238282zM785.485233 447.859423c-9.128915 0-17.220197 6.553253-18.857487 15.877619-9.103332 51.752688-38.940894 96.67583-84.010369 126.488833-45.401026 30.03813-100.830453 41.203424-156.077731 31.43699-10.428513-1.841951-20.36277 5.14109-22.204721 15.588023-1.838881 10.44898 5.121648 20.422122 15.550161 22.26305 64.939011 11.471262 130.235157-1.735527 183.851285-37.2156 53.955866-35.687804 89.701998-89.633437 100.649328-151.888316 1.843998-10.454096-5.123694-20.422122-15.552208-22.26305C787.709901 447.953567 786.591427 447.859423 785.485233 447.859423L785.485233 447.859423 785.485233 447.859423zM939.582867 462.18264c-9.129938 0-17.22736 6.561439-18.86465 15.884782-15.533788 88.309278-66.401316 164.950819-143.238308 215.770252-77.161381 51.04763-171.311691 70.030983-265.100774 53.454446-10.423397-1.839905-20.364817 5.136997-22.199605 15.591093-1.835811 10.446933 5.123694 20.415982 15.553231 22.255887 103.477746 18.292622 207.488635-2.740414 292.872281-59.220776C884.322285 669.21181 941.10043 583.559035 958.483332 484.738355c1.842974-10.446933-5.123694-20.413935-15.552208-22.25384C941.806511 462.278831 940.688038 462.18264 939.582867 462.18264L939.582867 462.18264 939.582867 462.18264zM939.582867 462.18264"  horiz-adv-x="1024" />

    
    <glyph glyph-name="wenhao" unicode="&#59165;" d="M511.48152533 861.97950293c-122.16693333 0-244.3327744-46.40952853-337.83512746-139.9118816-186.32140907-186.32140907-186.32140907-489.3488448 0-675.67025386 93.50235307-93.50235307 215.66819413-139.9118816 337.83512746-139.9118816s244.3338656 46.40952853 337.83512747 139.9118816c186.32140907 186.32140907 186.32140907 489.3488448 0 675.67025386C755.81539093 815.5699744 633.6484576 861.97950293 511.48152533 861.97950293zM511.48152533 814.20447467c55.964752 0 110.56400533-10.919632 161.7511456-31.39448854 53.2348448-21.84035627 101.0087808-53.2348448 141.95849387-94.86676053 41.6319168-40.949712 73.02749653-88.72474027 94.86676053-141.95849387 20.47485653-51.18714027 31.39448853-105.7863936 31.39448854-161.7511456s-10.919632-110.56400533-31.39448854-161.7511456c-21.839264-53.2348448-53.2348448-101.0087808-94.86676053-141.95849386-40.949712-41.6319168-88.72474027-73.02749653-141.95849387-94.86676054-51.18714027-20.47485653-105.7863936-31.39448853-161.7511456-31.39448853-55.964752 0-110.56400533 10.919632-161.7511456 31.39448853-53.2348448 21.84035627-101.0087808 53.2348448-141.95849386 94.86676054-41.6319168 40.949712-73.02749653 88.72474027-94.86676054 141.95849386-20.47485653 51.18714027-31.39448853 105.7863936-31.39448853 161.7511456s10.919632 110.56400533 31.39448853 161.7511456c21.84035627 53.2348448 53.2348448 101.0087808 94.86676054 141.95849387 40.949712 41.6319168 88.72474027 73.02749653 141.95849386 94.86676053C400.91752 803.28484267 455.51677227 814.20447467 511.48152533 814.20447467zM511.48152533 210.8795136c-19.79265173 0-36.854304-16.37944853-36.854304-36.854304 0-19.79265173 17.06274347-36.17210027 36.854304-36.17210027 20.47485653 0 36.854304 16.37944853 36.854304 36.17210027C548.33692053 194.49897387 531.9563808 210.8795136 511.48152533 210.8795136zM512.16482027 630.6140650699999c-45.04512 0-81.21722027-11.602928-108.5163008-36.17210027-27.30017173-23.88696853-44.36182507-58.69466027-49.82164054-104.42198507l62.10677227-7.50752c4.77761173 34.1243968 16.37944853 59.37686507 33.442192 75.0741088 17.06274347 16.37944853 38.2198048 23.88696853 63.472272 23.88696854 26.6168768 0 49.1394368-8.87192853 67.5665888-26.6168768 17.74494827-17.06274347 26.6168768-37.5376 26.6168768-61.42456854 0-12.28513173-2.72990827-24.57026453-8.87192853-35.48989653-6.14202027-10.919632-19.79265173-25.25246827-40.26750827-43.67962027-21.15706027-18.427152-35.48989653-32.07778453-43.67962027-41.6319168-10.23742827-12.96733653-18.427152-25.934672-23.20476373-38.90200853-6.82531627-17.06274347-10.23742827-37.5376-10.23742827-60.7423648l0.68220374-18.427152 57.32916053 0c0.68220373 23.88696853 2.04770347 41.6319168 4.77761173 51.86934507 3.412112 10.919632 7.50752 20.47485653 13.64954027 28.66458026 6.14202027 8.18972373 18.427152 21.15706027 38.2198048 38.2198048 28.66458027 25.934672 48.457232 47.77502827 58.69466027 65.51997654 9.55522347 17.74494827 15.01504 37.5376 15.01504 58.69466026 0 36.854304-14.33283627 68.2498848-42.99741654 94.1845568C598.15856107 617.64672853 559.93875733 630.6140650699999 512.16482027 630.6140650699999z"  horiz-adv-x="1024" />

    
    <glyph glyph-name="facebook" unicode="&#58880;" d="M546.19722347-93.08469119999995h-69.27908374c-243.87583253 0-443.4106048 199.53477227-443.4106048 443.4106048v69.27908373c0 243.87583253 199.53477227 443.4106048 443.4106048 443.4106048h69.27908374c243.87583253 0 443.4106048-199.53477227 443.4106048-443.4106048v-69.27908373C989.606736 106.45008107000001 790.07196373-93.08469119999995 546.19722347-93.08469119999995zM543.51164053 137.04868907000002h-102.9979488V386.05650773h-51.47713173v85.84363734h51.47713173v51.50989653c0 69.9867936 29.0630528 111.65537707 111.6062304 111.65537707h68.73738134v-85.84145387h-42.9409312c-32.14617707 0-34.28350293-12.0059424-34.28350294-34.380704l-0.11904426-42.94311573h77.8425888l-9.11722134-85.84363734h-68.72536746V137.04868907000002z"  horiz-adv-x="1024" />

    
    <glyph glyph-name="line" unicode="&#59037;" d="M729.24586667 536.7296v-51.48266667h89.2352c6.86293333 0 12.01386667-1.71626667 15.4432-5.1488s5.1488-6.86293333 5.1488-12.01386666c0-5.1488-1.71626667-8.5792-5.1488-12.01386667-3.4336-3.4336-8.5792-5.1488-15.4432-5.1488h-89.2352v-60.06186667h99.5296c6.86293333 0 12.01386667-1.71626667 15.4432-5.1488s5.1488-6.86293333 5.1488-12.01386666c0-5.1488-1.71626667-8.5792-5.1488-12.01386667-3.4336-3.4336-8.5792-5.1488-15.4432-5.1488h-116.6912c-8.5792 0-15.4432 1.71626667-20.592 6.86293333-3.4336 3.4336-6.86293333 10.29653333-6.86293334 20.592v159.5936c0 6.86293333 1.71626667 12.01386667 3.4336 15.4432s5.1488 6.86293333 8.5792 8.5792c3.4336 1.71626667 8.5792 3.4336 15.4432 3.4336h113.25973334c6.86293333 0 12.01386667-1.71626667 15.4432-5.1488s5.1488-6.86293333 5.1488-12.01386666c0-5.1488-1.71626667-8.5792-5.1488-12.01386667-3.4336-3.4336-8.5792-5.1488-15.4432-5.1488h-96.10026667zM523.31946667 547.02506667l82.37013333-125.2704v126.98986666c0 8.5792 1.71626667 13.728 5.1488 18.87573334 3.4336 3.4336 8.5792 6.86293333 13.728 6.86293333 6.86293333 0 10.29653333-1.71626667 15.4432-6.86293333 3.4336-3.4336 5.1488-10.29653333 5.1488-18.87573334v-168.1728c0-18.87573333-8.5792-27.45706667-22.30826667-27.45706666-3.4336 0-6.86293333 0-10.29653333 1.71626666-3.4336 1.71626667-5.1488 3.4336-8.5792 5.1488-3.4336 1.71626667-5.1488 5.1488-6.86293333 8.5792s-5.1488 6.86293333-6.86293334 10.29653334l-80.656 123.5552v-125.2704c0-8.5792-1.71626667-13.728-5.1488-18.87573334-3.4336-3.4336-8.5792-6.86293333-13.728-6.86293333-6.86293333 0-10.29653333 1.71626667-15.4432 6.86293333-3.4336 3.4336-5.1488 10.29653333-5.1488 18.87573334v164.74346666c0 6.86293333 0 12.01386667 1.71626667 17.16266667s5.1488 8.5792 8.5792 10.29653333c3.4336 3.4336 8.5792 3.4336 13.728 3.4336 3.4336 0 6.86293333 0 10.29653333-1.71626666 3.4336-1.71626667 5.1488-3.4336 6.86293334-5.1488 1.71626667-1.71626667 3.4336-5.1488 6.86293333-8.5792 0-3.4336 1.71626667-6.86293333 5.1488-10.29653334zM384.3168 378.85119999999995v168.1728c0 8.5792 1.71626667 15.4432 5.1488 18.87573333 3.4336 5.1488 8.5792 6.86293333 15.4432 6.86293334s12.01386667-1.71626667 15.4432-6.86293334c3.4336-5.1488 5.1488-10.29653333 5.1488-18.87573333v-168.1728c0-8.5792-1.71626667-15.4432-5.1488-20.592s-8.5792-6.86293333-15.4432-6.86293333-12.01386667 1.71626667-15.4432 6.86293333c-3.4336 5.1488-5.1488 12.01386667-5.1488 20.592zM262.48106667 547.02506667v-154.44693334h87.51893333c6.86293333 0 12.01386667-1.71626667 15.4432-5.1488s5.1488-6.86293333 5.1488-12.01386666c0-5.1488-1.71626667-10.29653333-5.1488-12.01386667-3.4336-3.4336-8.5792-5.1488-15.4432-5.1488h-102.96213333c-8.5792 0-15.4432 1.71626667-20.592 6.86293333-3.4336 3.4336-6.86293333 10.29653333-6.86293334 20.592v163.02506667c0 8.5792 1.71626667 15.4432 5.1488 18.87573333 3.4336 5.1488 8.5792 6.86293333 15.4432 6.86293334s12.01386667-1.71626667 15.4432-6.86293334c5.1488-5.1488 6.86293333-12.01386667 6.86293334-20.592zM485.56373333 81.97439999999995s8.5792-20.592 1.71626667-60.06186667c-3.4336-20.592-20.592-39.46986667-18.87573333-53.1968s20.592-24.02453333 29.1712-20.592c211.07626667 99.5296 377.53066667 259.12106667 384.3968 265.9872 72.0736 66.9248 114.976 156.15893333 114.976 252.2592 0 212.78826667-212.78826667 386.11093333-473.63093334 386.11093334-262.55573333 0-473.63093333-173.32266667-473.63093333-386.11093334 0-202.49173333 192.1984-368.9504 435.87733333-384.3968z"  horiz-adv-x="1024" />

    
    <glyph glyph-name="youtube-play" unicode="&#59204;" d="M412.89310344 259.71428531000004l259.28571469 133.92857157-259.28571469 135.53571468v-269.46428625z m99.10714312 461.78571469q90 0 173.83928532-2.41071469T808.78596031 714l39.10714313-2.14285688q0.53571469 0 9.10714312-0.80357156t12.32142844-1.60714312 12.58928531-2.41071375 15.26785781-4.28571469 15-6.96428531 16.60714219-10.44642938 15.53571469-14.19642844q3.21428531-3.21428531 8.30357156-9.91071375t15.53571375-31.33928625 14.19642938-54.10714218q4.28571469-34.28571469 6.69642843-73.125T992.00024656 441.85714313v-94.28571469q0.53571469-77.67857156-9.64285687-155.35714313-3.75-29.46428531-13.39285781-53.30357062t-17.14285688-32.94642938l-7.5-9.10714218q-7.5-8.03571469-15.53571469-14.19642844t-16.60714218-10.17857156-15-6.69642844-15.26785782-4.28571469-12.85714218-2.41071469-12.32142844-1.60714218-8.83928625-0.80357157q-134.46428531-10.17857156-335.89285688-10.17857156-110.89285687 1.07142844-192.58928625 3.48214313T212.00024656 54l-26.25 2.14285688-19.28571468 2.14285781q-19.28571469 2.67857156-29.19642844 5.35714218t-27.32142844 11.25000001-30.26785687 21.96428625q-3.21428531 3.21428531-8.30357157 9.91071374t-15.53571468 31.33928625T41.64310344 192.21428531000004q-4.28571469 34.28571469-6.69642844 73.125T32.00024656 326.14285686999995V420.42857156q-0.53571469 77.67857156 9.64285688 155.35714313 3.75 29.46428531 13.39285687 53.30357062T72.17881813 662.03571469l7.49999999 9.10714219q7.5 8.03571469 15.53571375 14.19642843t16.60714313 10.44642938 15 6.96428531 15.26785687 4.28571469 12.58928625 2.41071375 12.32142844 1.60714312 9.10714313 0.80357157q134.46428531 9.64285687 335.89285687 9.64285687z"  horiz-adv-x="1024" />

    
    <glyph glyph-name="youxiang" unicode="&#58902;" d="M1022.08 179.072V595.52l-217.28-217.344 217.28-199.04M655.36 228.8a188.16 188.16 0 0 0-133.888-55.488c-50.56 0-98.176 19.712-133.952 55.488L270.976 345.408 20.864 116.16v-38.4c0-50.24 40.832-91.072 91.008-91.072h819.2c50.176 0 91.008 40.832 91.008 91.008v39.68l-249.536 228.608-117.12-117.12M932.928 768h-819.2C63.616 768 22.848 727.168 22.848 676.992v-19.008l398.784-398.912c27.2-27.136 63.36-42.112 101.76-42.112 38.464 0 74.624 14.976 101.76 42.112L1024 657.984v19.008C1024 727.168 983.04 768 932.928 768M20.864 595.52v-417.6L238.72 377.6 20.864 595.52"  horiz-adv-x="1024" />

    
    <glyph glyph-name="bangzhu" unicode="&#58969;" d="M906.41749333 123.30871466999997C959.234048 200.37358932999996 987.136 290.45282133 987.136 384c0 257.69847467-213.12853333 467.337216-475.12507733 467.337216S36.864 641.69847467 36.864 384s213.15037867-467.337216 475.14692267-467.337216c83.460096 0 165.527552 21.58865067 237.436928 62.46126933 152.420352-57.802752 172.326912-48.78609067 184.23261866-43.37937066l4.620288 2.06984533 3.87754667 3.244032c8.51421867 7.159808 17.32334933 14.55445333 13.75709867 40.67601067-3.54986667 25.88672-19.28942933 70.909952-49.51790934 141.574144z m-74.72196266 1.89508266l8.536064-19.595264c15.040512-34.52654933 30.67630933-73.613312 41.058304-102.547456-31.74126933 9.62833067-75.513856 24.89821867-114.71530667 40.06434134l-17.81486933 6.897664-16.171008-10.07616c-65.92375467-40.97092267-142.20765867-62.636032-220.577792-62.636032-227.98882133 0-413.466624 182.43584-413.466624 406.68910933s185.47780267 406.68910933 413.466624 406.68910933S925.47754667 608.25326933 925.47754667 384c0-87.78001067-27.97841067-171.33841067-80.89873067-241.66946133l-12.88328533-17.12674134zM372.63223467 456.843264c0.884736 31.64296533 2.523136 55.7056 9.125888 72.18244267 6.60821333 16.482304 15.76686933 31.20059733 30.28309333 44.171264 14.52714667 12.959744 30.70907733 22.511616 48.52394667 28.672 17.825792 6.144 36.64008533 9.224192 56.44834133 9.224192 40.03703467 0 72.679424-13.84994133 99.29796267-37.35552 24.76168533-21.87264 35.06176-54.38395733 35.06176-91.84324267 0-17.59095467-2.719744-33.521664-9.535488-47.792128-6.82666667-14.29230933-16.46592-32.08533333-38.68808534-53.40091733-22.216704-21.32104533-36.962304-36.48170667-44.22587733-45.47652267-7.258112-9.01666133-12.77405867-19.77002667-16.498688-32.30378667-3.74647467-12.53376-4.947968-12.39722667-4.947968-18.99451733H479.37399467c0 8.35584 1.97700267 12.83959467 5.947392 27.557888 3.95946667 14.71829333 9.895936 27.58519467 17.825792 38.56247467 7.91893333 10.98820267 22.22216533 27.13736533 42.89877333 48.45841066 20.68206933 21.30466133 34.00772267 36.798464 39.93873067 46.47048534 5.931008 9.66109867 8.912896 24.06263467 8.912896 43.17184 0 19.12558933-6.82666667 36.03387733-20.46907734 50.76855466-13.64241067 14.712832-33.44520533 22.07470933-59.40292266 22.07470934-58.540032 0-87.79639467-34.717696-87.79639467-104.153088h-54.59694933v0.00546133zM538.59669333 156.90683733000003H478.05781333V224.14677332999997h60.53888v-67.239936z"  horiz-adv-x="1024" />

    
    <glyph glyph-name="buxianshi" unicode="&#59199;" d="M1798.623539 889.783979c-26.925502 5.3851-59.236105-10.770201-64.621205-43.080804 0-5.3851-80.776506-339.261326-403.882531-506.199439h-5.385101c-5.3851 0-5.3851-5.3851-10.770201-5.3851s-5.3851-5.3851-10.7702-5.385101c-102.316908-48.465904-226.174217-75.391406-376.957029-75.391405C274.640121 259.72723 145.397711 830.547874 140.012611 852.088276 134.62751 879.013778 107.702008 900.554179 80.776506 895.169079 48.465904 889.783979 32.310602 857.473376 37.695703 830.547874c0-5.3851 26.925502-113.087109 102.316908-242.329519-5.3851-5.3851-10.770201-5.3851-10.770201-10.770201L5.3851 340.503736c-5.3851-10.770201-5.3851-16.155301-5.3851-21.540401v-21.540402c5.3851-10.770201 16.155301-26.925502 26.925502-32.310603 10.770201-5.3851 26.925502-5.3851 43.080803-5.3851 10.770201 5.3851 26.925502 16.155301 32.310603 26.925502l102.316908 199.248715C253.09972 421.280242 317.720925 356.659037 398.497431 302.808033l-80.776506-247.714619c-5.3851-26.925502 5.3851-53.851004 32.310602-64.621205 10.770201-5.3851 26.925502 0 37.695703 0 16.155301 5.3851 26.925502 16.155301 32.310602 32.310603L495.429238 248.957029c107.702008-53.851004 242.329519-91.546707 403.882531-96.931807V-74.148996c0-32.310602 21.540402-53.851004 53.851005-53.851004s53.851004 21.540402 53.851004 53.851004v226.174218c118.472209 5.3851 215.404017 32.310602 301.565623 64.621205l64.621205-193.863615c5.3851-16.155301 16.155301-26.925502 26.925502-32.310603 10.770201-5.3851 26.925502-5.3851 43.080803-5.3851 21.540402 5.3851 37.695703 26.925502 37.695703 48.465903v21.540402l-70.006305 210.018916c91.546707 53.851004 166.938113 118.472209 226.174217 188.478515l86.161607-166.938113c5.3851-5.3851 5.3851-10.770201 10.770201-16.155301l5.3851-5.385101c10.770201-5.3851 21.540402-10.770201 32.310603-5.3851 5.3851 0 16.155301 0 21.540401 5.3851 26.925502 16.155301 37.695703 48.465904 21.540402 70.006306l-107.702008 215.404016c96.931807 145.397711 129.24241 274.640121 129.24241 280.025222 5.3851 26.925502-10.770201 53.851004-37.695703 59.236105z"  horiz-adv-x="1841" />

    
    <glyph glyph-name="xianshi" unicode="&#59226;" d="M1509.451852 387.792593C1467.733333 679.822222 1141.57037 896 754.725926 896S41.718519 679.822222 0 387.792593v-7.585186C41.718519 88.177778 367.881481-128 754.725926-128s713.007407 216.177778 754.725926 508.207407v7.585186zM754.725926-52.148148C405.807407-52.148148 117.57037 133.688889 75.851852 384 117.57037 634.311111 405.807407 820.148148 754.725926 820.148148s637.155556-185.837037 678.874074-436.148148C1391.881481 133.688889 1103.644444-52.148148 754.725926-52.148148zM982.281481 402.962963c-83.437037 0-151.703704 68.266667-151.703703 151.703704 0 34.133333 11.377778 68.266667 34.133333 94.814814-34.133333 11.377778-72.059259 18.962963-109.985185 18.962963-166.874074 0-303.407407-136.533333-303.407407-303.407407s136.533333-303.407407 303.407407-303.407407 303.407407 136.533333 303.407407 303.407407c0 18.962963 0 37.925926-3.792592 56.888889-22.755556-11.377778-45.511111-18.962963-72.05926-18.962963z"  horiz-adv-x="1509" />

    
    <glyph glyph-name="tuichudenglu" unicode="&#58909;" d="M960.512 356.288l-144.768-144.832-48.256 48.256 60.224 60.288H512V384h325.76l-70.272 70.272 48.256 48.256 144.768-144.768-0.704-0.768 0.704-0.704zM704 704a64 64 0 0 1-64 64H192a64 64 0 0 1-64-64v-640a64 64 0 0 1 64-64h448a64 64 0 0 1 64 64v64h64v-64a128 128 0 0 0-128-128H192a128 128 0 0 0-128 128V704a128 128 0 0 0 128 128h448a128 128 0 0 0 128-128v-128h-64V704z"  horiz-adv-x="1024" />

    
    <glyph glyph-name="meiguo" unicode="&#59061;" d="M7.547912-121.710074h1520.904176V889.710074H7.547912v-1011.420148z m1523.420147-2.51597v3.773956-3.773956zM1.257985-128V896H1534.742015v-1024H1.257985zM3.773956 189.012285h1527.194103v-77.995086H3.773956zM3.773956 267.007371h1527.194103v-77.995086H3.773956zM3.773956 31.764128h1527.194103v-77.995086H3.773956zM3.773956-46.230958h1527.194103v-77.995086H3.773956zM3.773956 109.759214h1527.194103v-77.995086H3.773956zM3.773956 345.002457h1527.194103v-77.995086H3.773956zM3.773956 580.2457h1527.194103V502.250614H3.773956zM3.773956 815.488943h1527.194103v-77.995086H3.773956zM3.773956 737.493857h1527.194103v-77.995086H3.773956zM3.773956 424.255528h1527.194103v-77.995086H3.773956zM3.773956 893.484029h1527.194103v-77.995086H3.773956zM3.773956 658.240786h1527.194103v-77.995086H3.773956zM3.773956 502.250614h1527.194103v-77.995086H3.773956zM3.773956 893.484029h611.380835v-548.481572H3.773956zM462.938575 864.550369l3.773956-13.837838h13.837838l-11.321868-7.547912 5.031941-12.579852-11.321867 7.547911-11.321867-7.547911 5.031941 12.579852-11.321868 7.547912h13.837838zM462.938575 750.07371l3.773956-12.579853h13.837838l-11.321868-8.805896 5.031941-12.579853-11.321867 7.547912-11.321867-7.547912 5.031941 12.579853-11.321868 8.805896h13.837838zM462.938575 635.597052l3.773956-12.579853h13.837838l-11.321868-7.547912 5.031941-13.837837-11.321867 8.805896-11.321867-8.805896 5.031941 13.837837-11.321868 7.547912h13.837838zM462.938575 519.862408l3.773956-13.837838h13.837838l-11.321868-7.547912 5.031941-12.579852-11.321867 7.547911-11.321867-7.547911 5.031941 12.579852-11.321868 7.547912h13.837838zM462.938575 407.90172l3.773956-12.579853h13.837838l-11.321868-8.805896 5.031941-12.579853-11.321867 7.547911-11.321867-7.547911 5.031941 12.579853-11.321868 8.805896h13.837838zM361.041769 864.550369l3.773956-13.837838h13.837838l-11.321868-7.547912 5.031941-12.579852-11.321867 7.547911-11.321867-7.547911 3.773955 12.579852-10.063882 7.547912h12.579853zM361.041769 750.07371l3.773956-12.579853h13.837838l-11.321868-8.805896 5.031941-12.579853-11.321867 7.547912-11.321867-7.547912 3.773955 12.579853-10.063882 8.805896h12.579853zM361.041769 635.597052l3.773956-12.579853h13.837838l-11.321868-7.547912 5.031941-13.837837-11.321867 8.805896-11.321867-8.805896 3.773955 13.837837-10.063882 7.547912h12.579853zM361.041769 519.862408l3.773956-13.837838h13.837838l-11.321868-7.547912 5.031941-12.579852-11.321867 7.547911-11.321867-7.547911 3.773955 12.579852-10.063882 7.547912h12.579853zM361.041769 407.90172l3.773956-12.579853h13.837838l-11.321868-8.805896 5.031941-12.579853-11.321867 7.547911-11.321867-7.547911 3.773955 12.579853-10.063882 8.805896h12.579853zM259.144963 864.550369l3.773956-13.837838H276.756757l-11.321868-7.547912 3.773956-12.579852-10.063882 7.547911-11.321867-7.547911 3.773956 12.579852-11.321868 7.547912h13.837838zM259.144963 750.07371l3.773956-12.579853H276.756757l-11.321868-8.805896 3.773956-12.579853-10.063882 7.547912-11.321867-7.547912 3.773956 12.579853-11.321868 8.805896h13.837838zM259.144963 635.597052l3.773956-12.579853H276.756757l-11.321868-7.547912 3.773956-13.837837-10.063882 8.805896-11.321867-8.805896 3.773956 13.837837-11.321868 7.547912h13.837838zM259.144963 519.862408l3.773956-13.837838H276.756757l-11.321868-7.547912 3.773956-12.579852-10.063882 7.547911-11.321867-7.547911 3.773956 12.579852-11.321868 7.547912h13.837838zM259.144963 407.90172l3.773956-12.579853H276.756757l-11.321868-8.805896 3.773956-12.579853-10.063882 7.547911-11.321867-7.547911 3.773956 12.579853-11.321868 8.805896h13.837838zM155.990172 864.550369l5.031941-13.837838h12.579853l-10.063882-7.547912 3.773955-12.579852-11.321867 7.547911-11.321867-7.547911 5.031941 12.579852-11.321868 7.547912h13.837838zM155.990172 750.07371l5.031941-12.579853h12.579853l-10.063882-8.805896 3.773955-12.579853-11.321867 7.547912-11.321867-7.547912 5.031941 12.579853-11.321868 8.805896h13.837838zM155.990172 635.597052l5.031941-12.579853h12.579853l-10.063882-7.547912 3.773955-13.837837-11.321867 8.805896-11.321867-8.805896 5.031941 13.837837-11.321868 7.547912h13.837838zM155.990172 519.862408l5.031941-13.837838h12.579853l-10.063882-7.547912 3.773955-12.579852-11.321867 7.547911-11.321867-7.547911 5.031941 12.579852-11.321868 7.547912h13.837838zM155.990172 407.90172l5.031941-12.579853h12.579853l-10.063882-8.805896 3.773955-12.579853-11.321867 7.547911-11.321867-7.547911 5.031941 12.579853-11.321868 8.805896h13.837838zM54.093366 864.550369l3.773956-13.837838h13.837838l-11.321868-7.547912 5.031941-12.579852-11.321867 7.547911-11.321867-7.547911 5.031941 12.579852-11.321868 7.547912H50.31941zM54.093366 750.07371l3.773956-12.579853h13.837838l-11.321868-8.805896 5.031941-12.579853-11.321867 7.547912-11.321867-7.547912 5.031941 12.579853-11.321868 8.805896H50.31941zM54.093366 635.597052l3.773956-12.579853h13.837838l-11.321868-7.547912 5.031941-13.837837-11.321867 8.805896-11.321867-8.805896 5.031941 13.837837-11.321868 7.547912H50.31941zM54.093366 519.862408l3.773956-13.837838h13.837838l-11.321868-7.547912 5.031941-12.579852-11.321867 7.547911-11.321867-7.547911 5.031941 12.579852-11.321868 7.547912H50.31941zM54.093366 407.90172l3.773956-12.579853h13.837838l-11.321868-8.805896 5.031941-12.579853-11.321867 7.547911-11.321867-7.547911 5.031941 12.579853-11.321868 8.805896H50.31941zM515.773956 806.683047l3.773956-12.579853h13.837837l-11.321867-7.547911 3.773956-13.837838-10.063882 8.805897-11.321868-8.805897 3.773956 13.837838-11.321867 7.547911h13.837838zM515.773956 689.690418l3.773956-13.837838h13.837837l-11.321867-7.547912 3.773956-12.579852-10.063882 7.547911-11.321868-7.547911 3.773956 12.579852-11.321867 7.547912h13.837838zM514.515971 573.955774l3.773955-12.579853h13.837838l-11.321867-8.805896 5.031941-12.579853-11.321867 7.547912-11.321868-7.547912 3.773956 12.579853-11.321867 8.805896h13.837837zM513.257985 459.479115l3.773956-12.579852h13.837838l-11.321867-7.547912 5.031941-13.837837-11.321868 8.805896-11.321867-8.805896 3.773956 13.837837-10.063882 7.547912h13.837837zM412.619165 806.683047l5.031941-12.579853h12.579852l-10.063882-7.547911 3.773956-13.837838-11.321867 8.805897-11.321868-8.805897 5.031941 13.837838-11.321867 7.547911h13.837838zM412.619165 689.690418l5.031941-13.837838h12.579852l-10.063882-7.547912 3.773956-12.579852-11.321867 7.547911-11.321868-7.547911 5.031941 12.579852-11.321867 7.547912h13.837838zM411.361179 573.955774l5.031941-12.579853h13.837838l-11.321867-8.805896 3.773956-12.579853-11.321868 7.547912-10.063882-7.547912 3.773956 12.579853-11.321867 8.805896h13.837838zM411.361179 459.479115l3.773956-12.579852h13.837838l-11.321867-7.547912 3.773955-13.837837-10.063882 8.805896-11.321867-8.805896 3.773956 13.837837-11.321868 7.547912h13.837838zM310.722359 811.714988l3.773955-13.837838h13.837838l-11.321867-7.547912 5.031941-12.579852-11.321867 7.547911-11.321868-7.547911 5.031941 12.579852-11.321867 7.547912h13.837838zM310.722359 693.464373l3.773955-12.579852h13.837838l-11.321867-8.805897 5.031941-12.579853-11.321867 7.547912-11.321868-7.547912 5.031941 12.579853-11.321867 8.805897h13.837838zM309.464373 577.72973l5.031941-12.579853h12.579853l-10.063882-7.547911 3.773956-13.837838-11.321868 8.805897-11.321867-8.805897 5.031941 13.837838-11.321867 7.547911h13.837838zM308.206388 464.511057l5.031941-13.837838H327.076167l-11.321867-7.547912 3.773956-12.579852-11.321868 7.547911-10.063882-7.547911 3.773956 12.579852-11.321867 7.547912h13.837837zM208.825553 811.714988l3.773956-12.579853H226.437346l-11.321867-7.547911 3.773956-13.837838-10.063882 8.805897-11.321867-8.805897L201.277641 791.587224l-11.321867 7.547911h13.837838zM208.825553 694.722359l3.773956-12.579853H226.437346l-11.321867-8.805897 3.773956-12.579852-10.063882 7.547911-11.321867-7.547911 3.773955 12.579852-11.321867 8.805897h13.837838zM207.567568 578.987715l3.773955-12.579853h13.837838l-11.321867-7.547911 5.031941-13.837838-11.321867 8.805897-11.321868-8.805897 3.773956 13.837838-10.063882 7.547911h13.837838zM206.309582 465.769042l3.773956-13.837838h13.837838l-10.063882-7.547912 3.773956-12.579852-11.321868 7.547911-11.321867-7.547911 5.031941 12.579852-11.321867 7.547912h13.837838zM105.670762 814.230958l5.031941-12.579852h13.837838l-11.321868-8.805897 3.773956-12.579853-11.321867 7.547912-10.063882-7.547912 3.773955 12.579853-11.321867 8.805897h13.837838zM105.670762 697.238329l5.031941-13.837838h13.837838l-11.321868-7.547911 3.773956-12.579853-11.321867 7.547912-10.063882-7.547912 3.773955 12.579853-11.321867 7.547911h13.837838zM105.670762 581.503686l3.773955-12.579853h13.837838l-11.321867-8.805897 3.773956-12.579852-10.063882 7.547911-11.321868-7.547911 3.773956 12.579852-11.321867 8.805897H100.638821zM104.412776 467.027027l3.773956-12.579853h13.837838l-11.321867-7.547911 5.031941-13.837838-11.321868 8.805897-11.321867-8.805897 3.773956 13.837838-10.063882 7.547911h12.579852zM564.835381 864.550369l5.031941-13.837838h13.837838l-11.321868-7.547912 3.773956-12.579852-11.321867 7.547911-10.063882-7.547911 3.773956 12.579852-11.321868 7.547912h13.837838zM564.835381 750.07371l5.031941-12.579853h13.837838l-11.321868-8.805896 3.773956-12.579853-11.321867 7.547912-10.063882-7.547912 3.773956 12.579853-11.321868 8.805896h13.837838zM564.835381 635.597052l5.031941-12.579853h13.837838l-11.321868-7.547912 3.773956-13.837837-11.321867 8.805896-10.063882-8.805896 3.773956 13.837837-11.321868 7.547912h13.837838zM564.835381 519.862408l5.031941-13.837838h13.837838l-11.321868-7.547912 3.773956-12.579852-11.321867 7.547911-10.063882-7.547911 3.773956 12.579852-11.321868 7.547912h13.837838zM564.835381 407.90172l5.031941-12.579853h13.837838l-11.321868-8.805896 3.773956-12.579853-11.321867 7.547911-10.063882-7.547911 3.773956 12.579853-11.321868 8.805896h13.837838z"  horiz-adv-x="1542" />

    
    <glyph glyph-name="taiguo" unicode="&#59096;" d="M6.271532-121.740831h1513.466993V884.733496H6.271532v-1006.474327z m1515.970661-3.755502v3.755502-3.755502z m-1522.229829-2.503667V890.992665h1525.98533v-1018.992665H0.012364zM3.767865 212.498778h1519.726161v-168.997556H3.767865zM3.767865 43.501222h1519.726161v-168.997555H3.767865zM3.767865 888.488998h1519.726161v-168.997555H3.767865zM3.767865 719.491443h1519.726161v-168.997555H3.767865zM3.767865 550.493888h1519.726161v-337.99511H3.767865z"  horiz-adv-x="1541" />

    
    <glyph glyph-name="zhongguo" unicode="&#59101;" d="M11.321867-121.710074h1520.904177V889.710074H11.321867v-1011.420148z m1524.678133-3.773955v3.773955-3.773955zM5.031941-128V896h1533.48403v-1024H5.031941zM8.805897 893.484029h1527.194103V-124.226044H8.805897zM264.176904 777.749386l32.707617-99.380836h104.412776L317.012285 617.985258l31.449631-99.380835L264.176904 580.2457l-84.285012-61.641277 32.707617 99.380835-84.285013 60.383292h104.412777zM535.90172 830.584767l-1.257985-35.223588 31.449631-12.579852-33.965602-8.805897-1.257985-33.965602-18.869779 28.933661-32.707617-7.547912 21.38575 26.417691-17.611794 28.933661 31.449632-13.837838zM652.894349 718.624079l-15.095823-30.191647 23.90172-23.901719-33.965602 5.031941-15.095823-30.191647-5.031941 33.965602-33.965602 5.031941L603.832924 693.464373l-5.031941 33.965602 23.90172-23.901719zM617.670762 580.2457l11.321867-32.707616h33.965602l-27.675676-20.127765 10.063882-32.707616-27.675675 20.127764-27.675676-20.127764 11.321867 32.707616-27.675675 20.127765h33.965602zM535.90172 474.574939l-2.515971-33.965602 32.707617-12.579853-33.965602-8.805897-2.51597-33.965602-17.611794 28.933661-33.965602-8.805897 22.643735 26.417691-18.869779 28.933661 32.707617-12.579853z"  horiz-adv-x="1546" />

    
    <glyph glyph-name="guanbi" unicode="&#59326;" d="M512.001 880.322C237.414 880.322 14.82 657.727 14.82 383.14S237.414-114.04 512-114.04s497.18 222.593 497.18 497.18S786.589 880.322 512.002 880.322z m213.211-645.937c17.798-17.803 17.798-46.657 0-64.456-17.798-17.797-46.658-17.797-64.456 0L512.001 318.685 363.241 169.93c-17.799-17.797-46.652-17.797-64.45 0-17.804 17.799-17.804 46.653 0 64.456L447.545 383.14 298.79 531.896c-17.803 17.798-17.803 46.657 0 64.455 17.799 17.798 46.652 17.798 64.45 0l148.761-148.755 148.755 148.755c17.798 17.798 46.658 17.798 64.456 0 17.798-17.798 17.798-46.657 0-64.455L576.456 383.14l148.756-148.755z m0 0"  horiz-adv-x="1024" />

    
    <glyph glyph-name="Facebook" unicode="&#58926;" d="M591.292-127.99v467.091h156.785l23.473 182.033h-180.258v116.223c0 52.702 14.637 88.621 90.218 88.621l96.394 0.045v162.808c-16.679 2.21-73.895 7.165-140.462 7.165-138.979 0-234.127-84.828-234.127-240.619v-134.247h-157.19v-182.033h157.185v-467.091l187.982 0.005z"  horiz-adv-x="1024" />

    
    <glyph glyph-name="lvzhou_yuyanqiehuan" unicode="&#58921;" d="M951.856 569.06453333c-24.016 56.77866667-58.39146667 107.76746667-102.17386667 151.55093334-43.78346667 43.7824-94.77333333 78.16-151.55093333 102.17493333C639.33546667 847.6576 576.89173333 860.26666667 512.53333333 860.26666667c-64.35946667 0-126.8032-12.60906667-185.59786666-37.47626667-56.77866667-24.01493333-107.76746667-58.39253333-151.55093334-102.17493333s-78.16-94.7712-102.17493333-151.55093334C48.34133333 510.26986667 35.73333333 447.82613333 35.73333333 383.46666667s12.60906667-126.8032 37.47626667-185.59786667c24.01493333-56.77866667 58.39253333-107.76746667 102.17493333-151.55093333 43.7824-43.7824 94.7712-78.15893333 151.55093334-102.17386667C385.72906667-80.72426667000002 448.17386667-93.33333332999996 512.53333333-93.33333332999996c64.3584 0 126.80213333 12.60906667 185.59893334 37.47733333 56.7776 24.01493333 107.76746667 58.39146667 151.55093333 102.17386667 43.7824 43.78346667 78.15786667 94.77226667 102.17386667 151.55093333C976.7232 256.66346667000005 989.33333333 319.10720000000003 989.33333333 383.46666667s-12.61013333 126.8032-37.47733333 185.59786666zM954.05226667 400H811.68746667c-2.92586667 77.86666667-22.9024 154.28373333-58.44586667 223.0912 30.6528 15.776 59.696 34.30826667 86.86826667 55.904C907.45173333 604.5994666700001 949.872 507.73333333 954.05226667 400zM530.13333333 809.00906667c73.6-41.9744 132.18133333-100.5696 174.512-169.61706667C649.6608 616.04586667 590.93333333 602.69546667 530.13333333 600.4032V809.00906667z m-34.13333333-208.70186667c-62.93333333 2.064-124.192 16.07786667-181.09333333 40.83733333C358.65386667 711.83573333 419.2 771.46133333 496 813.34613333v-213.03893333z m-169.44533333-1.88906667C380.6912 578.19093333 437.33333333 567.09333333 496 565.35146667V400H240.67093333c2.97173333 74.66666667 22.688 146.32213333 56.06186667 210.05653333 9.72373333-4.31893333 19.81653333-7.9008 29.82186667-11.6384zM496 365.86666667v-160.1888c-58.66666667-1.74826667-115.7984-12.9344-170.14613333-33.328a536.71893333 536.71893333 0 0 1-33.03253334-13.65653334C261.08693333 221.9488 242.66346667 292.26666666999995 240.49173333 365.86666667H496z m0-195.1456v-222.28693334c-78.93333333 43.32373333-141.61386667 105.5968-185.5776 179.48266667C368.56533333 153.90613333 430.93333333 168.60586666999995 496 170.72106667000003z m34.13333333-0.09386667c61.86666667-2.35413333 122.7456-16.36906667 178.98453334-40.90453333C666.55146667 57.48053332999996 605.86666667-3.7685333299999684 530.13333333-47.22879999999998v217.856z m167.984 1.3856C644.28693333 192.32640000000004 587.73333333 203.59786667000003 530.13333333 205.60000000000002V365.86666667h246.76693334c-2.1504-73.6-19.9808-142.5248-51.1392-205.29706667-9.10506667 4.03626667-18.29013333 7.9136-27.64373334 11.4432zM530.13333333 400V565.42933333c57.6 1.9936 113.664 13.17653333 167.2864 33.3248 8.26453333 3.10613333 16.39253333 5.96693333 24.46613334 9.4688C754.67306667 544.9557333299999 773.7792 474.66666667 776.72106667 400H530.13333333z m285.39626667 304.7872a492.79146667 492.79146667 0 0 0-79.3984-50.63786667 504.32 504.32 0 0 1-3.7792 6.18666667 531.2928 531.2928 0 0 1-154.90666667 160.22826667c91.42506667-13.51786667 173.81546667-55.14026667 238.08426667-115.77706667zM437.57226667 818.95893333a531.30453333 531.30453333 0 0 1-152.53226667-158.62293333c-0.85973333-1.38026667-1.696-2.77333333-2.54293333-4.16106667a492.81706667 492.81706667 0 0 0-74.10453334 47.536c62.07893333 58.9856 141.23093333 100.1568 229.17973334 115.248z m-253.66506667-140.896c25.54773333-20.1568 52.72746667-38.06613333 81.33333333-53.10613333C229.0144 555.59573333 208.6624 478.93333333 205.70666667 400H71.0144c4.15786667 106.66666667 46.16106667 203.81546667 112.8928 278.06293333zM71.0144 365.86666667h134.5312c2.17173333-77.86666667 21.3088-153.5808 55.97333333-222.5344-28.04586667-15.03466667-54.69333333-32.65066667-79.75573333-52.63466667C116.27413333 164.62933333 75.12853333 260.26666666999995 71.0144 365.86666667z m135.02826667-300.3872a492.68906667 492.68906667 0 0 0 72.25066666 47.1552 525.08373333 525.08373333 0 0 1 7.37173334-12.1728 531.24373333 531.24373333 0 0 1 141.87946666-150.64746667c-85.0432 16.63466667-161.42933333 57.74186667-221.50186666 115.66506667z m381.12106666-117.56266667a531.30026667 531.30026667 0 0 1 144.56426667 152.54506667 524.3904 524.3904 0 0 1 8.5984 14.2528 492.8832 492.8832 0 0 0 77.56266667-50.33066667c-62.33813333-59.68-142.06826667-101.32373333-230.72533334-116.4672z m255.088 141.63626667a527.3408 527.3408 0 0 1-85.3088 55.89226666C790.93333333 213.82719999999995 809.69813333 288 811.84746667 365.86666667h142.20373333c-4.13546667-106.66666667-45.70026667-202.22613333-111.79946667-276.3136z"  horiz-adv-x="1024" />

    
    <glyph glyph-name="xiala1" unicode="&#58971;" d="M814.592 547.7888l-261.7344-346.624a51.2 51.2 0 0 0-81.7152 0L209.408 547.7376A25.6 25.6 0 0 0 229.8368 588.8H794.112a25.6 25.6 0 0 0 20.48-41.0112z"  horiz-adv-x="1024" />

    
    <glyph glyph-name="xinzengmian" unicode="&#58905;" d="M511.3 829c-245.8 0-445-199.2-445-445s199.2-445 445-445 445 199.2 445 445S757 829 511.3 829z m300-445c0-17.7-14.3-32-32-32h-236v-236c0-17.7-14.3-32-32-32s-32 14.3-32 32V352h-236c-17.7 0-32 14.3-32 32s14.3 32 32 32h236V652c0 17.7 14.3 32 32 32s32-14.3 32-32v-236h236c17.7 0 32-14.3 32-32z"  horiz-adv-x="1024" />

    
    <glyph glyph-name="gengduo" unicode="&#58925;" d="M166.6 796.4h228.6c37.9 0 68.6-30.7 68.6-68.6v-228.6c0-37.9-30.7-68.6-68.6-68.6H166.6c-38 0-68.6 30.8-68.6 68.6V727.8c0 38 30.7 68.6 68.6 68.6z m457.3 0h228.6c38 0 68.6-30.7 68.6-68.6v-228.6c0-37.9-30.7-68.6-68.6-68.6H623.9c-37.9 0-68.6 30.7-68.6 68.6V727.8c0 38 30.7 68.6 68.6 68.6zM166.6 339.2h228.6c37.9 0 68.6-30.7 68.6-68.6V42c0-37.9-30.7-68.6-68.6-68.6H166.6c-38 0-68.6 30.7-68.6 68.6V270.5c0 37.9 30.7 68.7 68.6 68.7z m685.9-45.8c12.7 0 22.8-10.3 22.8-22.8V42c0-12.7-10.3-22.8-22.8-22.8H623.9c-12.7 0-22.8 10.3-22.8 22.8V270.5c0 12.7 10.3 22.8 22.8 22.8h228.6z m0 45.8H623.9c-37.9 0-68.6-30.7-68.6-68.6V42c0-37.9 30.7-68.6 68.6-68.6h228.6c37.9 0 68.6 30.7 68.6 68.6V270.5c0.1 37.9-30.6 68.7-68.6 68.7z"  horiz-adv-x="1024" />

    
    <glyph glyph-name="guanbi1" unicode="&#58889;" d="M583.168 372.224L958.464 747.52c18.944 18.944 18.944 50.176 0 69.12l-2.048 2.048c-18.944 18.944-50.176 18.944-69.12 0L512 442.88 136.704 818.688c-18.944 18.944-50.176 18.944-69.12 0l-2.048-2.048c-19.456-18.944-19.456-50.176 0-69.12l375.296-375.296L65.536-3.072c-18.944-18.944-18.944-50.176 0-69.12l2.048-2.048c18.944-18.944 50.176-18.944 69.12 0L512 301.056 887.296-74.24c18.944-18.944 50.176-18.944 69.12 0l2.048 2.048c18.944 18.944 18.944 50.176 0 69.12L583.168 372.224z"  horiz-adv-x="1024" />

    
    <glyph glyph-name="fenxiang" unicode="&#58887;" d="M349.658537 114.263415h1.498536c12.987317 0 23.976585 9.990244 24.97561 23.477073 17.982439 291.715122 232.772683 526.485854 517.494634 572.440975L764.253659 573.315122c-9.490732-9.990244-8.99122-25.974634 0.999024-35.465366 4.995122-4.49561 10.989268-6.993171 16.983415-6.993171 6.493659 0 13.486829 2.497561 17.982439 7.992195L996.526829 746.146341 743.773659 864.03122c-12.487805 5.994146-27.473171 0.499512-32.967805-11.988293-5.994146-12.487805-0.499512-27.473171 11.988292-32.967805l137.365854-63.937561c-131.371707-26.973659-252.753171-92.909268-347.160976-190.314146-110.891707-114.388293-177.326829-264.741463-186.817561-423.586342-0.999024-14.485854 9.490732-26.474146 23.477074-26.973658zM979.043902 371.512195c-13.986341 0-24.97561-10.989268-24.975609-24.97561v-290.716097c0-62.938537-50.950244-113.88878-113.888781-113.888781H183.820488C120.881951-58.068293 69.931707-7.118049 69.931707 55.820488V712.179512C69.931707 775.118049 120.881951 826.068293 183.820488 826.068293h192.811707c13.986341 0 24.97561 10.989268 24.97561 24.975609s-10.989268 24.97561-24.97561 24.97561H183.820488C93.40878 876.019512 19.980488 802.59122 19.980488 712.179512v-656.359024C19.980488-34.59122 93.40878-108.019512 183.820488-108.019512h656.359024c90.411707 0 163.84 73.428293 163.84 163.84V346.536585c0 13.986341-10.989268 24.97561-24.97561 24.97561z"  horiz-adv-x="1024" />

    
    <glyph glyph-name="kefu" unicode="&#58888;" d="M721.29561 277.603902c1.498537 1.498537 3.496585 2.997073 4.995122 4.995122l3.496585 3.496586 6.493659 6.493658c1.498537 1.498537 2.997073 3.496585 4.495609 4.995122 1.498537 1.998049 3.496585 3.996098 4.995122 5.494634 1.998049 2.497561 3.996098 4.49561 5.494634 6.993171 0.999024 1.498537 2.497561 2.997073 3.496586 4.49561 2.497561 2.997073 4.49561 5.994146 6.993171 8.991219 0.499512 0.999024 0.999024 1.498537 1.998048 2.497561 2.997073 3.996098 5.494634 7.992195 7.992195 11.988293v0.499512c30.470244 47.953171 47.953171 104.897561 47.953171 165.838049 0 171.832195-139.863415 311.196098-311.196097 311.196098s-311.196098-139.863415-311.196098-311.196098c0-5.494634 0-10.989268 0.499512-16.483902v-0.499513c1.998049-38.462439 10.989268-74.926829 25.974634-108.394146 1.998049-4.49561 3.996098-8.99122 6.493659-13.486829 0.499512-0.499512 0.499512-0.999024 0.999024-1.498537 1.998049-3.996098 3.996098-7.992195 6.493659-11.48878 0.499512-0.999024 0.999024-1.998049 1.998049-2.997073 1.998049-3.496585 3.996098-6.493659 5.994146-9.990244l2.997073-4.49561c1.498537-2.497561 3.496585-5.494634 5.494634-7.992195 1.498537-1.998049 2.497561-3.996098 3.996098-5.494634l4.49561-5.994147c1.498537-2.497561 3.496585-4.49561 5.494634-6.493658 0.999024-1.498537 2.497561-2.997073 3.496585-4.49561 1.998049-2.497561 4.49561-4.995122 6.493659-7.492683l2.497561-2.497561c5.994146-6.493659 11.988293-12.487805 18.481951-18.481951-114.388293-64.936585-192.811707-178.325854-212.792195-309.697561-3.496585-22.478049 2.997073-45.45561 17.982439-62.938537s36.46439-27.473171 59.441951-27.47317h697.818537c22.977561 0 44.456585 9.990244 59.441951 27.47317s21.479024 40.460488 17.982439 62.938537c-20.48 132.870244-100.901463 246.759024-217.787317 311.196097zM508.503415 766.126829c144.359024 0 261.244878-117.385366 261.244878-261.244878 0-4.995122 0-9.990244-0.499513-14.985366 0-0.999024 0-1.998049-0.499512-3.496585-0.499512-3.996098-0.499512-7.992195-0.999024-11.988293 0-0.999024 0-1.998049-0.499512-2.497561-0.499512-4.49561-0.999024-8.491707-1.998049-12.987317v-0.999024c-7.492683-40.460488-24.476098-78.423415-48.952195-110.891707l-0.499512-0.499513c-2.497561-3.496585-5.494634-6.993171-7.992196-9.990244-0.999024-0.999024-1.998049-2.497561-2.997073-3.496585-1.998049-2.497561-3.996098-4.49561-5.994146-6.993171-1.498537-1.498537-2.497561-2.997073-3.996098-3.996097-1.998049-1.998049-3.996098-3.996098-5.994146-5.494634l-4.49561-4.49561c-2.997073-2.997073-6.493659-5.494634-9.490731-8.491707-1.998049-1.498537-3.996098-2.997073-5.494635-4.49561-1.998049-1.498537-3.496585-2.997073-5.494634-4.49561-43.457561-31.96878-96.905366-50.950244-154.84878-50.950244-57.443902 0-110.392195 18.481951-153.350244 49.95122-1.998049 1.498537-3.996098 2.997073-5.494634 3.996097l-5.994147 4.49561c-1.998049 1.498537-3.496585 2.997073-5.494634 4.49561-2.497561 2.497561-5.494634 4.49561-7.992195 6.99317-2.497561 1.998049-4.49561 4.49561-6.993171 6.493659-1.498537 1.498537-2.997073 2.997073-4.495609 4.995122-1.998049 1.998049-3.496585 3.996098-5.494634 5.994146-1.498537 1.498537-2.497561 2.997073-3.996098 4.49561-1.998049 2.497561-3.996098 4.49561-5.494634 6.993171-0.999024 1.498537-1.998049 2.497561-2.997073 3.996097-2.497561 3.496585-5.494634 6.993171-7.992195 10.989269l-0.499513 0.499512c-5.994146 8.491707-10.989268 17.482927-15.98439 26.474146 0 0 0 0.499512-0.499512 0.499512-11.48878 22.478049-19.980488 46.954146-24.97561 71.929756 0 0.499512-0.499512 1.498537-0.499512 1.998049-0.499512 3.996098-1.498537 7.992195-1.998049 12.487805 0 0.999024-0.499512 2.497561-0.499512 3.496586-0.499512 3.996098-0.999024 7.492683-0.999024 11.48878 0 0.999024 0 2.497561-0.499513 3.496585-0.499512 4.995122-0.499512 9.990244-0.499512 14.985366C247.258537 649.240976 364.14439 766.126829 508.503415 766.126829z m374.134634-830.68878c-5.494634-6.493659-12.987317-9.990244-21.479025-9.990244H162.840976c-8.491707 0-15.98439 3.496585-21.479025 9.990244s-7.992195 14.485854-6.493658 22.977561c18.981463 123.379512 95.906341 228.277073 207.297561 283.722927 47.953171-30.470244 105.397073-48.452683 166.337561-48.452683 62.439024 0 120.881951 18.481951 169.334634 50.450731 113.88878-54.946341 192.312195-160.842927 211.293658-285.720975 1.498537-8.491707-0.999024-16.983415-6.493658-22.977561zM901.12 550.337561c-24.97561 192.811707-189.814634 342.165854-389.12 342.165854s-364.643902-149.354146-389.12-342.165854c-45.45561-9.990244-79.921951-50.450732-79.921951-98.903415 0-55.945366 45.45561-101.400976 101.400975-101.400975h24.97561v149.853658c0 188.81561 153.849756 342.665366 342.665366 342.665366s342.665366-153.849756 342.665366-342.665366v-149.853658h24.97561c55.945366 0 101.400976 45.45561 101.400975 101.400975 0 48.452683-34.466341 88.913171-79.921951 98.903415zM119.383415 406.977561c-15.484878 8.99122-26.474146 25.475122-26.474147 44.956098s10.489756 35.964878 26.474147 44.956097v-89.912195z m785.23317 0V496.390244c15.484878-8.99122 26.474146-25.475122 26.474147-44.956098s-10.989268-35.964878-26.474147-44.456585z"  horiz-adv-x="1024" />

    
    <glyph glyph-name="jian" unicode="&#58890;" d="M104.448 447.488H921.6c34.816 0 63.488-28.672 63.488-63.488 0-34.816-28.672-63.488-63.488-63.488H104.448C69.632 320.512 40.96 349.184 40.96 384c0 34.816 28.672 63.488 63.488 63.488z"  horiz-adv-x="1024" />

    
    <glyph glyph-name="jia" unicode="&#58891;" d="M919.552 447.488H575.488V791.552C575.488 826.368 546.816 855.04 512 855.04c-34.816 0-63.488-28.672-63.488-63.488V445.44H104.448C69.632 447.488 40.96 418.816 40.96 384s28.672-63.488 63.488-63.488H450.56V-25.6c0-34.816 28.672-63.488 63.488-63.488 34.816 0 63.488 28.672 63.488 63.488V320.512h346.112c34.816 0 63.488 28.672 63.488 63.488-4.096 34.816-32.768 63.488-67.584 63.488z"  horiz-adv-x="1024" />

    
    <glyph glyph-name="paimaijilu" unicode="&#58893;" d="M513.5872-117.76A504.32 504.32 0 1 0 1020.928 386.56a506.4448 506.4448 0 0 0-507.3408-504.32z m0 947.584A443.2384 443.2384 0 1 1 959.4368 386.56 445.056 445.056 0 0 1 513.5872 829.7728z m0-478.8736a30.72 30.72 0 0 0-30.72 30.5664v254.72a30.72 30.72 0 0 0 61.44 0V381.44a30.72 30.72 0 0 0-30.72-30.5408z m128.128-137.5488a30.72 30.72 0 0 0-22.5536 9.8048l-128 137.5488a30.4384 30.4384 0 0 0 1.664 43.1872 30.848 30.848 0 0 0 43.52-1.664l128-137.5488a30.4384 30.4384 0 0 0-1.664-43.1872 30.72 30.72 0 0 0-20.9664-8.192z"  horiz-adv-x="1024" />

    
    <glyph glyph-name="dingdan" unicode="&#58894;" d="M613.157791 673.951151h-202.38854a111.024424 111.024424 0 0 0 0 222.048849h202.38854a111.024424 111.024424 0 0 0 0-222.048849z m-202.38854 160.81518a49.790755 49.790755 0 0 1 0-99.581511h202.38854a49.790755 49.790755 0 0 1 0 99.581511h-202.38854zM740.41221-128H283.514832A207.790005 207.790005 0 0 0 76.8 80.481188V609.261568a207.790005 207.790005 0 0 0 206.714832 208.506788h44.773281a30.719232 30.719232 0 0 0 0-61.233669H283.514832a146.761131 146.761131 0 0 1-145.916352-147.22192v-528.831579a146.761131 146.761131 0 0 1 145.916352-147.221919h456.897378a146.761131 146.761131 0 0 1 145.916352 147.221919V609.261568a146.761131 146.761131 0 0 1-145.916352 147.22192h-45.848454a30.719232 30.719232 0 0 0 0 61.233669h45.848454A207.790005 207.790005 0 0 0 947.178241 609.261568v-528.78038A207.790005 207.790005 0 0 0 740.41221-128z m-50.584336 587.633309H327.98092a30.719232 30.719232 0 0 0 0 61.233669h361.846954a30.719232 30.719232 0 0 0 0-61.233669z m0-191.739206H327.98092a30.719232 30.719232 0 0 0 0 61.233669h361.846954a30.719232 30.719232 0 0 0 0-61.233669z m-196.244694-191.739207h-159.458413a30.719232 30.719232 0 0 0 0 61.233669h159.458413a30.719232 30.719232 0 0 0 0-61.233669z"  horiz-adv-x="1024" />

    
    <glyph glyph-name="gouwuche" unicode="&#58895;" d="M805.651486 125.3483H429.502249a66.297419 66.297419 0 0 0-10.502562 0.945231c-51.331269 7.876921-96.466027 47.89168-134.301504 118.836482C204.799947 395.132846 189.728772 640.000066 188.468464 663.368265c-9.741126 68.109111-32.63671 115.186842-66.271162 136.113196a96.518539 96.518539 0 0 1-75.434647 9.662356 31.376402 31.376402 0 1 0-20.348713 59.365729 161.529394 161.529394 0 0 0 128.05248-15.123689c43.533117-26.545224 73.51793-74.46316 89.271772-142.729809l664.024445-5.093743a140.261708 140.261708 0 0 0 114.530432-42.010245 127.291044 127.291044 0 0 0 26.597737-99.091667c-1.601641-9.242254-39.384605-226.724044-91.47731-337.342273a168.040983 168.040983 0 0 0-151.762012-101.76982z m-375.466571 62.752805h375.17775a105.550742 105.550742 0 0 1 95.074437 65.641008c48.495577 102.925102 86.068491 319.120328 86.436081 321.273354a66.21865 66.21865 0 0 1-12.498048 47.89168 82.602645 82.602645 0 0 1-65.641009 20.007379h-1.024L252.717884 647.824474c4.883691-62.306446 24.628507-255.028447 87.670131-373.234776 28.015583-52.512807 57.764088-81.552389 88.116491-86.252286zM458.436806-127.999737a106.154639 106.154639 0 1 0 106.627254 106.128383A106.522229 106.522229 0 0 0 458.436806-127.999737z m0 149.6615a43.428091 43.428091 0 1 1 43.611886-43.428092 43.559373 43.559373 0 0 1-43.611886 43.21804z m327.627403-147.03586A106.154639 106.154639 0 1 0 892.71772-19.114432a106.522229 106.522229 0 0 0-106.653511-106.259665z m0 149.6615a43.428091 43.428091 0 1 1 43.638142-43.401835 43.559373 43.559373 0 0 1-43.638142 43.401835z"  horiz-adv-x="1050" />

    
    <glyph glyph-name="dingdanyixuan" unicode="&#58897;" d="M740.676683 819.374829h-21.803707A108.968585 108.968585 0 0 1 614.949463 896h-199.954731a108.968585 108.968585 0 0 1-103.923512-76.625171h-21.828683A204.450341 204.450341 0 0 1 84.917073 615.149268V97.030244a204.450341 204.450341 0 0 1 204.225561-204.225561h451.534049a204.450341 204.450341 0 0 1 204.225561 204.225561V615.149268a204.450341 204.450341 0 0 1-204.225561 204.225561zM414.994732 836.058537h199.954731a48.777366 48.777366 0 0 0 0-97.554732h-199.954731a48.777366 48.777366 0 1 0 0 97.554732z m81.795122-743.224196h-157.546147a29.970732 29.970732 0 0 0 0 59.941464h157.546147a29.970732 29.970732 0 0 0 0-59.966439z m193.910634 187.841561H333.174634a29.970732 29.970732 0 1 0 0 59.941464h357.525854a29.970732 29.970732 0 0 0 0-59.966439z m0 187.841561H333.174634a29.970732 29.970732 0 1 0 0 59.941464h357.525854a29.970732 29.970732 0 0 0 0-59.966439z"  horiz-adv-x="1024" />

    
    <glyph glyph-name="wodeyixuan" unicode="&#58898;" d="M524.8 251.7504A321.8688 321.8688 0 1 1 201.8816 573.6192 322.7136 322.7136 0 0 1 524.8 251.7504z m267.6224-70.144H257.0496a154.6496 154.6496 0 1 1 0-309.2992H792.32a154.6496 154.6496 0 1 1 0 309.2992z"  horiz-adv-x="1024" />

    
    <glyph glyph-name="paimaijiluyixuan" unicode="&#58899;" d="M528.9728 890.88a506.4704 506.4704 0 1 1 507.264-506.5728A507.4432 507.4432 0 0 1 528.9728 890.88z m148.992-672.2304a30.72 30.72 0 0 0-43.52 1.664l-128 138.24-0.2048 0.2816a30.72 30.72 0 0 0-3.328 4.4032l-0.4096 0.2816a30.72 30.72 0 0 0-2.2784 4.7616l-0.2304 0.6912a30.2336 30.2336 0 0 0-1.28 5.12v0.768a31.0528 31.0528 0 0 0-0.3328 4.3008V634.88a30.72 30.72 0 0 0 61.44 0v-243.7632l119.9104-129.3056a30.72 30.72 0 0 0-1.7664-43.264z"  horiz-adv-x="1049" />

    
    <glyph glyph-name="gouwucheyixuan" unicode="&#58900;" d="M1006.336 668.16a136.3712 136.3712 0 0 1-111.6416 41.1904L247.3728 714.3936c-15.36 66.8416-44.6208 113.7664-87.04 139.7504a156.8256 156.8256 0 0 1-124.8256 14.8224 30.72 30.72 0 1 1 19.84-58.112 93.696 93.696 0 0 0 73.5488-9.5744c32.7936-20.48 55.1168-66.56 64.5888-133.12 1.2288-22.8864 15.872-262.6048 93.8496-409.4208 36.8896-69.4528 80.8704-108.5952 130.944-116.352a64.2304 64.2304 0 0 1 10.24-0.9472H795.1616a163.6864 163.6864 0 0 1 147.9424 99.6096c50.816 108.3136 87.6288 321.2544 89.1904 330.24A124.9536 124.9536 0 0 1 1006.336 668.16zM456.6784 101.0432a103.9104 103.9104 0 1 1 103.9616-103.936 104.064 104.064 0 0 1-103.9616 103.936z m319.36 2.816A103.936 103.936 0 1 1 880.0256 0a104.064 104.064 0 0 1-103.9616 103.8592z"  horiz-adv-x="1049" />

    
    <glyph glyph-name="xingzhuang" unicode="&#58901;" d="M511.0272 254.976a320.5376 320.5376 0 1 0 322.8672 320.512 322.0736 322.0736 0 0 0-322.8672-320.512z m0 579.9936a259.4816 259.4816 0 1 1 261.376-259.4816 260.7104 260.7104 0 0 1-261.376 259.4816zM778.7008-122.88H243.3536a154.0096 154.0096 0 1 0 0 307.9936h535.3472a154.0096 154.0096 0 1 0 0-307.9936zM243.3536 124.0576a92.9536 92.9536 0 1 1 0-185.9072h535.3472a92.9536 92.9536 0 1 1 0 185.9072H243.3536z"  horiz-adv-x="1024" />

    
    <glyph glyph-name="weibiaoti-" unicode="&#58910;" d="M781.312 544.768c-11.264 0-21.504-9.216-21.504-21.504v-475.136c0-20.48-16.384-36.864-36.864-36.864H301.056c-20.48 0-36.864 16.384-36.864 36.864V523.264c0 11.264-9.216 21.504-21.504 21.504-11.264 0-21.504-9.216-21.504-21.504v-475.136c0-44.032 35.84-79.872 79.872-79.872h422.912c44.032 0 79.872 35.84 79.872 79.872V523.264c-1.024 11.264-10.24 21.504-22.528 21.504zM903.168 648.192H744.448v71.68c0 44.032-35.84 79.872-79.872 79.872H354.304c-44.032 0-79.872-35.84-79.872-79.872v-71.68h-153.6c-11.264 0-21.504-9.216-21.504-21.504s9.216-21.504 21.504-21.504h782.336c11.264 0 21.504 9.216 21.504 21.504s-10.24 21.504-21.504 21.504z m-586.752 70.656c0 20.48 16.384 36.864 36.864 36.864H665.6c20.48 0 36.864-16.384 36.864-36.864v-71.68H316.416v71.68zM438.272 169.984V525.312c0 11.264-9.216 21.504-21.504 21.504s-21.504-9.216-21.504-21.504v-354.304c0-11.264 9.216-21.504 21.504-21.504s21.504 9.216 21.504 20.48zM622.592 169.984V525.312c0 11.264-9.216 21.504-21.504 21.504s-21.504-9.216-21.504-21.504v-354.304c0-11.264 9.216-21.504 21.504-21.504s21.504 9.216 21.504 20.48z"  horiz-adv-x="1024" />

    
    <glyph glyph-name="zuojiantou" unicode="&#58904;" d="M369.728 384l384.768 384.704a48.64 48.64 0 0 1 0.896 68.8 48.64 48.64 0 0 1-68.736-0.96L269.44 419.264a48.704 48.704 0 0 1-11.136-17.344c-1.024-2.304-1.024-4.736-1.472-7.04-0.896-3.648-2.048-7.168-2.048-10.88 0-3.712 1.152-7.232 1.984-10.88 0.512-2.368 0.512-4.8 1.472-7.04a48.704 48.704 0 0 1 11.136-17.344l417.216-417.28a48.576 48.576 0 0 1 68.736-0.96 48.576 48.576 0 0 1-0.896 68.736L369.728 384z"  horiz-adv-x="1024" />

    
    <glyph glyph-name="youjiantou" unicode="&#58907;" d="M654.336 384L269.312 768.512c-19.456 18.944-19.456 49.664-1.024 68.608 19.456 18.944 50.176 18.432 68.608-1.024l417.28-417.28c5.12-5.12 8.704-10.752 11.264-17.408 1.024-2.048 1.024-4.608 1.536-7.168 1.024-3.584 2.048-7.168 2.048-10.752s-1.024-7.168-2.048-10.752c-0.512-2.56-0.512-4.608-1.536-7.168-2.56-6.656-6.144-12.288-11.264-17.408l-417.28-417.28c-18.944-19.456-49.664-19.456-68.608-1.024-18.944 19.456-18.432 50.176 1.024 68.608l385.024 385.536z"  horiz-adv-x="1024" />

    
    <glyph glyph-name="yonghuming-" unicode="&#58912;" d="M507.259259 308.148148c-154.548148 0-280.651852 126.103704-280.651852 280.651852S352.711111 869.451852 507.259259 869.451852C661.807407 868.503704 786.962963 743.348148 786.962963 588.8S661.807407 308.148148 507.259259 308.148148z m0 512.948148c-128 0-233.244444-104.296296-233.244444-233.244444 0-128 104.296296-233.244444 233.244444-233.244445C635.259259 355.555556 739.555556 460.8 739.555556 588.8S635.259259 821.096296 507.259259 821.096296zM916.859259-100.503704c-13.274074 0-23.703704 10.42963-23.703703 23.703704 0 209.540741-170.666667 381.155556-381.155556 381.155556-209.540741 0-381.155556-170.666667-381.155556-381.155556 0-13.274074-10.42963-23.703704-23.703703-23.703704s-23.703704 10.42963-23.703704 23.703704c0 236.088889 192.474074 428.562963 428.562963 428.562963 236.088889 0 428.562963-192.474074 428.562963-428.562963 0-13.274074-11.377778-23.703704-23.703704-23.703704z"  horiz-adv-x="1024" />

    
    <glyph glyph-name="mima-" unicode="&#58913;" d="M768-104.296296H256c-75.851852 0-137.481481 61.62963-137.481481 137.481481V374.518519c0 75.851852 61.62963 137.481481 137.481481 137.481481h512c75.851852 0 137.481481-61.62963 137.481481-137.481481v-341.333334c0-75.851852-61.62963-137.481481-137.481481-137.481481z m-512 568.888889c-49.303704 0-90.074074-40.77037-90.074074-90.074074v-341.333334c0-49.303704 40.77037-90.074074 90.074074-90.074074h512c49.303704 0 90.074074 40.77037 90.074074 90.074074V374.518519c0 49.303704-40.77037 90.074074-90.074074 90.074074H256zM730.074074 464.592593c-13.274074 0-23.703704 10.42963-23.703704 23.703703V635.259259c0 104.296296-85.333333 189.62963-189.629629 189.62963s-189.62963-85.333333-189.62963-189.62963c0-13.274074-10.42963-23.703704-23.703704-23.703703s-23.703704 10.42963-23.703703 23.703703c0 130.844444 106.192593 237.037037 237.037037 237.037037s237.037037-106.192593 237.037037-237.037037V488.296296c0-13.274074-10.42963-23.703704-23.703704-23.703703zM512 237.037037m-80.592593 0a80.592593 80.592593 0 1 1 161.185186 0 80.592593 80.592593 0 1 1-161.185186 0ZM512 42.666667c-13.274074 0-23.703704 10.42963-23.703704 23.703703v104.296297c0 13.274074 10.42963 23.703704 23.703704 23.703703s23.703704-10.42963 23.703704-23.703703v-104.296297c0-13.274074-10.42963-23.703704-23.703704-23.703703z"  horiz-adv-x="1024" />

    
    <glyph glyph-name="shouyeyixuan" unicode="&#58914;" d="M1006.08 492.3904l-86.784 71.1424L516.2496 895.8464l-1.2544-0.9984L513.5616 896 108.8512 564.2496l-11.4176-9.2928-76.2624-62.5664a30.72 30.72 0 1 1 38.9632-47.2576l37.2992 30.592v-387.1232A212.0192 212.0192 0 0 1 309.504-122.88h408.1152a212.0192 212.0192 0 0 1 212.0704 211.5072v387.072l37.2992-30.592a30.72 30.72 0 1 1 39.0912 47.2832zM735.0784 120.576a46.08 46.08 0 0 0-65.0496 0L517.12 273.1776l-84.48-84.096a40.96 40.96 0 0 0-57.8048 0l-84.352 84.1216a40.8064 40.8064 0 0 0 0 57.6768l233.728 233.1136a41.1136 41.1136 0 0 0 57.8304 0l84.3264-84.1216a40.96 40.96 0 0 0 0-57.6768l-84.3264-84.1216 153.0112-152.6016a45.7728 45.7728 0 0 0 0.0256-64.896z"  horiz-adv-x="1024" />

    
    <glyph glyph-name="shouyeweixuan" unicode="&#58915;" d="M976.7168 435.9168a30.5152 30.5152 0 0 0-19.456 6.9888L503.9104 816.1536 50.5088 442.88a30.72 30.72 0 0 0-38.9376 47.488L503.9104 895.6928l492.3136-405.3248a30.72 30.72 0 0 0-19.5072-54.4512zM707.9424-127.488H299.8528a212.48 212.48 0 0 0-212.0192 212.48V533.5552a30.72 30.72 0 1 0 61.44 0v-448.64a151.04 151.04 0 0 1 150.6816-151.04h407.9872a151.04 151.04 0 0 1 150.7072 151.04V533.5552a30.72 30.72 0 1 0 61.44 0v-448.64a212.48 212.48 0 0 0-212.1472-212.4032z m-15.0784 205.3888a70.9888 70.9888 0 0 0-50.5856 20.992l-134.9376 135.1424-66.2528-66.3552a66.56 66.56 0 0 0-93.9776 0l-84.3264 84.48a66.7392 66.7392 0 0 0 0 94.1056l233.7024 234.0864a66.56 66.56 0 0 0 93.9776 0l84.3264-84.48a66.7392 66.7392 0 0 0 0-94.1312L608.5376 335.36l134.912-135.1424a71.68 71.68 0 0 0-50.5856-122.3168z m-185.5232 228.5568l171.0592-171.3408a20.8896 20.8896 0 0 1 28.9024 0 20.48 20.48 0 0 1 0 28.9536L536.2432 335.36l102.4 102.5536a15.36 15.36 0 0 1 0 21.7088l-84.3264 84.48a15.5392 15.5392 0 0 1-21.6832 0l-233.7024-234.0864a15.488 15.488 0 0 1 0-21.7088l84.3264-84.48a15.7952 15.7952 0 0 1 21.6832 0z"  horiz-adv-x="1024" />

    
    <glyph glyph-name="kai" unicode="&#58916;" d="M512 896h1110.204082A512 512 0 0 0 2133.333333 384a512 512 0 0 0-512-512h-1110.204081A512 512 0 0 0 0 384 512 512 0 0 0 512 896zM1621.333333 384m-469.333333 0a469.333333 469.333333 0 1 1 938.666667 0 469.333333 469.333333 0 1 1-938.666667 0Z"  horiz-adv-x="2133" />

    
    <glyph glyph-name="guan" unicode="&#58917;" d="M512 896h1110.204082A512 512 0 0 0 2133.333333 384a512 512 0 0 0-512-512h-1110.204081A512 512 0 0 0 0 384 512 512 0 0 0 512 896zM1621.333333 384m-469.333333 0a469.333333 469.333333 0 1 1 938.666667 0 469.333333 469.333333 0 1 1-938.666667 0Z"  horiz-adv-x="2133" />

    
    <glyph glyph-name="xingxingweixuan" unicode="&#58918;" d="M551.384615 837.710769l147.035898-290.658461 6.301538-12.340513 13.653334-1.837949 326.892307-46.473846-236.307692-225.017436-10.24-9.714872 2.363077-13.915897 55.926154-318.490257-293.546667 150.974359-12.077949 6.301539-12.077948-6.038974-293.809231-150.974359 55.926154 318.490256 2.363077 13.915897-10.24 9.714872-236.307693 225.017436 327.417436 46.473846 13.653334 1.837949 6.301538 12.340513L551.384615 837.710769M551.384615 896l-170.404102-337.132308L0 504.779487l275.692308-262.564102L210.051282-128l341.333333 174.867692L892.717949-128l-65.641026 370.477949L1102.769231 504.779487l-380.980513 54.088205L551.384615 896z"  horiz-adv-x="1102" />

    
    <glyph glyph-name="xingxingyixuan" unicode="&#58919;" d="M551.384615 896l170.404103-337.132308L1102.769231 504.779487l-275.692308-262.301538L892.192821-128 551.384615 46.867692000000034 210.57641-128l65.115898 370.477949L0 504.779487l380.980513 54.088205L551.384615 896z"  horiz-adv-x="1102" />

    
    <glyph glyph-name="tianjiatupian" unicode="&#58920;" d="M205.6 396.8h614.4a12.8 12.8 0 0 0 0-25.6h-614.4a12.8 12.8 0 0 0 0 25.6z m307.2 307.2a12.8 12.8 0 0 0 12.8-12.8v-614.4a12.8 12.8 0 0 0-25.6 0V691.2a12.8 12.8 0 0 0 12.8 12.8zM0 844.8h6.4v-51.2H0V844.8z m0-102.4h6.4v-51.2H0v51.2z m0-102.4h6.4v-51.2H0v51.2z m0-102.4h6.4v-51.2H0v51.2z m0-102.4h6.4v-51.2H0v51.2z m0-102.4h6.4v-51.2H0v51.2z m0-102.4h6.4v-51.2H0v51.2z m0-102.4h6.4v-51.2H0v51.2z m0-102.4h6.4v-51.2H0v51.2z m0-102.4h6.4v-51.2H0v51.2zM1017.6 896h6.4v-51.2h-6.4V896z m0-102.4h6.4v-51.2h-6.4v51.2z m0-102.4h6.4v-51.2h-6.4v51.2z m0-102.4h6.4v-51.2h-6.4v51.2z m0-102.4h6.4v-51.2h-6.4v51.2z m0-102.4h6.4v-51.2h-6.4v51.2z m0-102.4h6.4v-51.2h-6.4v51.2z m0-102.4h6.4v-51.2h-6.4v51.2z m0-102.4h6.4v-51.2h-6.4v51.2z m0-102.4h6.4v-51.2h-6.4v51.2zM51.2-121.6h51.2v-6.4H51.2v6.4z m102.4 0h51.2v-6.4h-51.2v6.4z m102.4 0h51.2v-6.4h-51.2v6.4z m102.4 0h51.2v-6.4h-51.2v6.4z m102.4 0h51.2v-6.4h-51.2v6.4z m102.4 0h51.2v-6.4h-51.2v6.4z m102.4 0h51.2v-6.4h-51.2v6.4z m102.4 0h51.2v-6.4h-51.2v6.4z m102.4 0h51.2v-6.4h-51.2v6.4z m102.4 0h51.2v-6.4h-51.2v6.4zM0 896h51.2v-6.4H0V896z m102.4 0h51.2v-6.4h-51.2V896z m102.4 0h51.2v-6.4h-51.2V896z m102.4 0h51.2v-6.4h-51.2V896z m102.4 0h51.2v-6.4h-51.2V896z m102.4 0h51.2v-6.4h-51.2V896z m102.4 0h51.2v-6.4h-51.2V896z m102.4 0h51.2v-6.4h-51.2V896z m102.4 0h51.2v-6.4h-51.2V896z m102.4 0h51.2v-6.4h-51.2V896z"  horiz-adv-x="1024" />

    
    <glyph glyph-name="dengdaizhifu" unicode="&#58922;" d="M941.404719 721.600575h-40.944431l-20.472215 102.872882c-3.582638 24.566659-17.913189 46.57429-38.89721 59.88123-17.913189 11.771524-39.92082 14.842356-60.393035 8.188887L205.940379 730.813072c-18.424994-5.118054-34.802766-16.889578-45.038874-33.267351-15.865967-16.889578-24.566659-39.409015-24.566658-62.952062v-318.34295C53.93418 278.888916 0.706419 197.000054 0.194614 105.898695 3.265446-24.099873 110.232772-127.996366 240.23134-127.996366c93.14858-0.511805 178.62008 53.22776 218.5409 137.675649h480.073452c46.57429 1.535416 82.912473 39.92082 81.888862 86.49511v537.395655c2.047222 46.062485-33.26735 84.959694-79.329835 88.030527z m-142.281897 110.549963c3.070832 1.535416 7.165275 1.535416 10.236107 0 6.141665-4.094443 10.236108-10.747913 11.259719-17.913189l19.96041-93.14858H397.355594l401.767228 111.061769zM409.638923 44.993854c-27.637491-69.093727-95.195802-113.620796-169.407583-112.597185-96.219413 0-174.013831 77.794419-174.013831 174.013832s77.794419 174.013831 174.013831 174.013831c97.243023 0 177.084664-76.770808 180.155496-174.013831 0-20.984021-3.582638-41.968042-10.747913-61.416647z m531.765796 24.566659H480.268066c1.023611 12.283329 1.023611 24.566659 0 36.849988-3.070832 129.998568-110.038158 233.895061-240.036726 233.895061-14.330551 0-28.661102-1.535416-42.479847-4.094443V636.129075c0 16.377772 10.236108 27.637491 19.448605 27.637491H941.916524c9.212497 0 19.448605-11.259718 19.448605-27.637491v-129.998568H742.312424c-16.377772 0-30.196518-13.30694-30.196518-30.196518v-224.682564c0-16.377772 13.30694-30.196518 30.196518-30.196518h219.052705V97.198004c-1.023611-16.377772-10.747913-27.637491-19.96041-27.637491z m18.936799 211.88743h-188.856187V445.737472h188.856187V281.447943zM829.831145 363.84861c0-19.96041 15.865967-35.826377 35.826377-35.826377s35.826377 15.865967 35.826377 35.826377-15.865967 35.826377-35.826377 35.826377-35.826377-16.377772-35.826377-35.826377zM235.113286 70.584124c-11.259718 0-20.472215 9.212497-20.472215 20.472215v141.770092c0 11.259718 9.212497 20.472215 20.472215 20.472215s20.472215-9.212497 20.472216-20.472215v-141.770092c0-11.259718-9.212497-20.472215-20.472216-20.472215zM335.938947 70.584124H235.113286c-11.259718 0-20.472215 9.212497-20.472215 20.472215s9.212497 20.472215 20.472215 20.472215h101.337467c11.259718 0 20.472215-9.212497 20.472215-20.472215s-9.724302-20.472215-20.984021-20.472215z"  horiz-adv-x="1024" />

    
    <glyph glyph-name="zhengzaizhifu" unicode="&#58923;" d="M941.404719 721.600575h-40.944431l-20.472215 102.872882c-3.582638 24.566659-17.913189 46.57429-38.89721 59.88123-17.913189 11.771524-39.92082 14.842356-60.393035 8.188887L205.940379 730.813072c-18.424994-5.118054-34.802766-16.889578-45.038874-33.267351-15.865967-16.889578-24.566659-39.409015-24.566658-62.952062v-318.34295C53.93418 278.888916 0.706419 197.000054 0.194614 105.898695 3.265446-24.099873 110.232772-127.996366 240.23134-127.996366c93.14858-0.511805 178.62008 53.22776 218.5409 137.675649h480.073452c46.57429 1.535416 82.912473 39.92082 81.888862 86.49511v537.395655c2.047222 46.062485-33.26735 84.959694-79.329835 88.030527z m-142.281897 110.549963c3.070832 1.535416 7.165275 1.535416 10.236107 0 6.141665-4.094443 10.236108-10.747913 11.259719-17.913189l19.96041-93.14858H397.355594l401.767228 111.061769zM409.638923 44.993854c-27.637491-69.093727-95.195802-113.620796-169.407583-112.597185-96.219413 0-174.013831 77.794419-174.013831 174.013832s77.794419 174.013831 174.013831 174.013831c97.243023 0 177.084664-76.770808 180.155496-174.013831 0-20.984021-3.582638-41.968042-10.747913-61.416647z m531.765796 24.566659H480.268066c1.023611 12.283329 1.023611 24.566659 0 36.849988-3.070832 129.998568-110.038158 233.895061-240.036726 233.895061-14.330551 0-28.661102-1.535416-42.479847-4.094443V636.129075c0 16.377772 10.236108 27.637491 19.448605 27.637491H941.916524c9.212497 0 19.448605-11.259718 19.448605-27.637491v-129.998568H742.312424c-16.377772 0-30.196518-13.30694-30.196518-30.196518v-224.682564c0-16.377772 13.30694-30.196518 30.196518-30.196518h219.052705V97.198004c-1.023611-16.377772-10.747913-27.637491-19.96041-27.637491z m18.936799 211.88743h-188.856187V445.737472h188.856187V281.447943zM829.831145 363.84861c0-19.96041 15.865967-35.826377 35.826377-35.826377s35.826377 15.865967 35.826377 35.826377-15.865967 35.826377-35.826377 35.826377-35.826377-16.377772-35.826377-35.826377zM373.812546 122.788273c-0.511805 0-0.511805 0 0 0l-0.511806 0.511805-83.936083 83.936084c-9.212497 9.212497-24.566659 9.212497-34.290961 0-9.212497-9.212497-9.212497-24.566659 0-34.290961l42.991653-42.991653H129.681377c-13.30694 0-24.566659-10.747913-24.566659-24.566658s10.747913-24.566659 24.566659-24.566659h168.383972l-42.991653-42.991652c-9.212497-9.212497-9.212497-24.566659 0-34.290961 9.212497-9.212497 24.566659-9.212497 34.290961 0L373.812546 89.009117c9.212497 9.212497 9.212497 24.566659 0 33.779156z"  horiz-adv-x="1024" />

    
    <glyph glyph-name="yuanjiaojuxingkaobei" unicode="&#58924;" d="M512 384m-512 0a512 512 0 1 1 1024 0 512 512 0 1 1-1024 0ZM325.039158 617.552842L744.501895 198.063158a32.956632 32.956632 0 0 0-46.565053-46.565053L278.447158 570.933895a32.956632 32.956632 0 0 0 46.592 46.618947z m419.462737 0a32.956632 32.956632 0 0 0 0-46.618947L325.039158 151.498105a32.956632 32.956632 0 1 0-46.592 46.565053L697.936842 617.552842a32.956632 32.956632 0 0 0 46.565053 0z"  horiz-adv-x="1024" />

    
    <glyph glyph-name="Facebook-copy" unicode="&#59566;" d="M537.00702731-104.10513748999995h151.59422891v-0.09251633c-25.73887295 0-86.81622423 0-151.59422891 0.09251633zM268.77041237 867.87147952c-21.84490183-0.38111207-43.87897885-1.80475894-63.63604931-5.51093572-21.47069395-4.08176547-41.03582757-9.49880402-60.60372288-19.46985561-19.84958683-10.06771044-36.94439623-23.8429785-52.24135087-38.75329769-14.91031922-15.29281212-28.68006389-32.48428035-38.75053601-52.24135086-9.87853524-19.56651446-15.38947097-39.03637007-19.47399813-60.59819951-3.70065341-19.75983218-5.12982367-41.79252835-5.50955488-63.64295354-0.09389718-4.93926762-0.09389718-9.49880402-0.19055604-16.62256183l-0.28307238-427.42961087c0-5.41289603 0.09389718-11.30218213 0.09389719-17.76313636 0.18917518-15.48198731 0.2872149-21.84490183 0.37973123-29.15783483 0.38111207-21.84490183 1.81028233-43.88450219 5.51093572-63.64157269 1.80475894-9.40076432 3.79731227-18.42593995 6.36291451-27.16390067 3.32644555-11.3008013 7.50486987-22.32267275 13.11108361-33.33764 10.06909127-19.85649104 23.8402168-36.95130043 38.75053602-52.23997001 15.29695463-14.91446173 32.48842288-28.6869681 52.24135086-38.75605936 19.56651446-9.87853524 39.04189343-15.38809013 60.60372288-19.47399814 19.75845134-3.70065341 41.79114752-5.12430029 63.63604934-5.50541236 7.31431385-0.09665887 13.67722835-0.18917518 29.16335818-0.37973123 14.71976317-0.09665887 26.78278861-0.18917518 35.70992453-0.1891752h203.26667335V273.07705668000006h-122.24031471v141.05289008h121.38695507v131.27239452c0 100.77652495 77.88770747 172.96688318 178.56757356 172.96688318l130.32237604-2.85281714v-135.44529549h-99.54481493c-28.77672275 0-52.14745369-31.82147677-52.14745369-60.69623922v-105.243545h146.8510407l-20.89902586-141.14540642h-130.60268672v-377.08967784h6.27039818c8.92851676 0 20.9915422 0.09665887 35.71130535 0.18917519 12.25220062 0.09803969 18.807052 0.19055603 24.59829842 0.19055604 1.52168658 0 3.04337317 0 4.6575761 0.09665885 21.84490183 0.38111207 43.88312135 1.80475894 63.64157269 5.51093572 21.46378976 4.08038463 41.03030422 9.49880402 60.59819953 19.46985561 19.84958683 10.06909127 36.94439623 23.83883596 52.24135086 38.75467855 14.91170004 15.29281212 28.68558725 32.48428035 38.75467853 52.24135086 9.87853524 19.56651446 15.38256677 39.0377509 19.46985561 60.59958035 3.70479594 19.75707051 5.12982367 41.79114752 5.51093572 63.64295353 0.09389718 7.312933 0.18917518 13.67584751 0.37973123 29.15645399 0.09251633 14.72114401 0.18917518 26.78416944 0.1891752 35.71130535V573.0384895c0 7.22179751-0.09665887 15.76782137-0.1891752 25.45856228-0.18917518 15.48060647-0.28583405 21.84490183-0.37973123 29.15783481-0.38111207 21.84904434-1.80475894 43.88312135-5.50955488 63.64295354-4.08728883 21.46378976-9.50018486 41.03030422-19.47123645 60.59819951-10.06909127 19.84958683-23.8429785 36.95130043-38.75467853 52.24135086-15.29695463 14.91031922-32.48428035 28.68558725-52.24135086 38.75329769-19.56651446 9.87991609-39.04189343 15.38947097-60.59819953 19.46985561-19.75983218 3.70479594-41.79805171 5.12982367-63.64295353 5.50955488-7.312933 0.09942053-13.67584751 0.19055603-29.15645397 0.38111207-14.81780287 0.09665887-26.8808283 0.18917518-35.80934506 0.1891752H333.64369509c-8.92713591 0-20.99016135-0.09251633-35.71130536-0.1891752-15.48474899-0.18917518-21.8476635-0.28169153-29.16197736-0.37973123z m0 0"  horiz-adv-x="1024" />

    
    <glyph glyph-name="instagram-fill-copy" unicode="&#59567;" d="M512 545.77682964c-89.08041482 0-161.77682964-72.69641483-161.77682964-161.77682964S422.91958518 222.22317036000004 512 222.22317036000004 673.77682964 294.91958518 673.77682964 384 601.08041482 545.77682964 512 545.77682964zM997.20912592 384c0 66.99235555 0.60681483 133.37789631-3.15543703 200.24888889-3.76225187 77.6722963-21.48124446 146.60645925-78.27911112 203.40432593-56.91922964 56.91922964-125.73202963 74.51685925-203.4043259 78.27911111-66.99235555 3.76225187-133.37789631 3.15543703-200.24888892 3.15543705-66.99235555 0-133.37789631 0.60681483-200.24888886-3.15543705-77.6722963-3.76225187-146.60645925-21.48124446-203.40432596-78.27911111C51.54891852 730.73398521 33.95128887 661.9211851800001 30.18903703 584.24888889c-3.76225187-66.99235555-3.15543703-133.37789631-3.15543703-200.24888889s-0.60681483-133.37789631 3.15543703-200.24888889c3.76225187-77.6722963 21.48124446-146.60645925 78.27911113-203.40432593 56.91922964-56.91922964 125.73202963-74.51685925 203.40432591-78.27911111 66.99235555-3.76225187 133.37789631-3.15543703 200.24888891-3.15543705 66.99235555 0 133.37789631-0.60681483 200.24888886 3.15543705 77.6722963 3.76225187 146.60645925 21.48124446 203.40432595 78.27911111 56.91922964 56.91922964 74.51685925 125.73202963 78.2791111 203.40432593 3.88361482 66.8709926 3.15543703 133.25653333 3.15543703 200.24888889zM512 135.08456294999996c-137.74696298 0-248.91543705 111.16847408-248.91543705 248.91543705S374.25303702 632.91543705 512 632.91543705 760.91543705 521.74696298 760.91543705 384 649.74696298 135.08456294999996 512 135.08456294999996z m259.10992593 449.89250372c-32.16118521 0-58.13285926 25.97167408-58.13285926 58.13285926s25.97167408 58.13285926 58.13285924 58.13285925 58.13285926-25.97167408 58.13285927-58.13285927c-0.12136298-32.28254815-25.97167408-58.13285926-58.13285927-58.13285924z"  horiz-adv-x="1024" />

    
    <glyph glyph-name="tongzhi" unicode="&#58954;" d="M643.072 798.72c-20.48 12.8-45.568 14.848-70.656 3.072l-322.56-188.928h-158.72c-36.864 0-67.072-30.208-67.072-67.072v-340.48c0-36.864 30.208-67.072 67.072-67.072h158.72l325.12-190.464c9.216-4.608 19.456-6.656 29.696-6.656 13.312 0 26.624 3.584 37.888 11.264 20.48 12.8 32.768 35.328 32.768 59.392v727.04c0 24.576-12.288 47.104-32.256 59.904zM225.28 206.336l-133.12-1.024-1.024 338.944H225.28v-337.92z m381.44-197.632l-313.344 183.808V559.104l312.32 182.784 1.536-730.112-0.512-3.072z m389.12 377.344c0-18.944-15.36-34.304-34.304-34.304h-155.648a34.304 34.304 0 0 0 0 68.608h155.648c18.944 0 34.304-15.36 34.304-34.304z m-218.624 174.08c-10.24 15.872-6.144 36.864 9.216 47.104L921.6 697.344c15.872 10.752 36.864 6.144 47.104-9.216 10.24-15.872 6.144-36.864-9.216-47.104L824.32 550.912c-5.632-4.096-12.288-5.632-18.944-5.632-10.752-0.512-21.504 4.608-28.16 14.848z m182.272-428.544c15.872-10.24 19.968-31.744 9.216-47.104-6.656-9.728-17.408-15.36-28.672-15.36-6.656 0-13.312 2.048-18.944 5.632l-135.168 90.112c-15.872 10.24-19.968 31.744-9.216 47.104 10.24 15.872 31.744 19.968 47.104 9.216l135.68-89.6z"  horiz-adv-x="1024" />

    
    <glyph glyph-name="aixin" unicode="&#58927;" d="M512 864C246.92537281 864 32 649.07462719 32 384s214.92537281-480 480-480 480 214.92537281 480 480S777.07462719 864 512 864z m214.30925344-565.29671625L539.48179062 119.85671624999998a39.70388062 39.70388062 0 0 0-54.94925343 0L297.90567125 298.80358219000004c-0.25791 0.20059688-73.90567125 65.23701469-73.90567125 146.7223875C224 541.95582094 285.08179062 601.7910449999999 383.43164187 601.7910449999999c51.968955 0 100.14089531-35.53432875 128.56835813-61.69791094 28.39880625 26.23522406 76.57074656 61.69791 128.56835813 61.69791094C738.90388062 601.7910449999999 800 541.95582094 800 445.52596969c0-70.82507437-56.41074656-130.30209-73.69074656-146.82268594z"  horiz-adv-x="1024" />

    


  </font>
</defs>
</svg>
